<svg id="_Layer_" data-name="&lt;Layer&gt;" xmlns="http://www.w3.org/2000/svg" xmlns:xlink="http://www.w3.org/1999/xlink" viewBox="0 0 2029.76 1670"><defs><style>.cls-1{fill:#fafafa;}.cls-2,.cls-53{fill:#65a1fb;}.cls-2{opacity:0.25;}.cls-3{fill:#bfce75;}.cls-4{fill:#98a246;}.cls-5{fill:#587440;}.cls-6{fill:#e9e9e9;}.cls-7{fill:#345ca1;}.cls-8{fill:url(#linear-gradient);}.cls-9{fill:url(#linear-gradient-2);}.cls-10{fill:#f2cf7d;}.cls-11{fill:#f4da81;}.cls-12{fill:#6da0f0;}.cls-13{fill:#efefef;}.cls-14{fill:#f5dd71;}.cls-15{fill:#d2b844;}.cls-16{fill:#475ea6;}.cls-17{fill:#c7c7c7;}.cls-18{fill:#f3d689;}.cls-19{fill:#f4d78b;}.cls-20{fill:url(#linear-gradient-3);}.cls-21{fill:url(#linear-gradient-4);}.cls-22{fill:url(#linear-gradient-5);}.cls-23{fill:#c8bdb6;}.cls-24{fill:#2e384d;}.cls-25{fill:#394762;}.cls-26{fill:#e6d8d1;}.cls-27{fill:#363957;}.cls-28{fill:#dba585;}.cls-29{fill:#ebb35c;}.cls-30{fill:#997761;}.cls-31{fill:#c2c2c2;}.cls-32{fill:#26283a;}.cls-33{fill:#807f7d;}.cls-34{fill:#2e3048;}.cls-35{fill:#d8d6e1;}.cls-36{fill:#232536;}.cls-37{fill:#dba686;}.cls-38{fill:#b74242;}.cls-39{fill:#c1bfc9;}.cls-40{fill:#3e4265;}.cls-41{fill:#686eae;}.cls-42{fill:#32344f;}.cls-43{fill:#b6b6b6;}.cls-44{fill:#c38855;}.cls-45{fill:#f1cc5e;}.cls-46{fill:#2d4f88;}.cls-47{fill:#cacaca;}.cls-48{fill:#eebd5d;}.cls-49{fill:#474442;}.cls-50{fill:#8f8f8f;}.cls-51{fill:#af8b46;}.cls-52{fill:#dedede;}.cls-54{fill:#477ee1;}.cls-55{fill:#3864b0;}.cls-56{fill:#393d3f;}.cls-57{fill:#323436;}.cls-58{fill:#d7c9c2;}.cls-59{fill:#4c5155;}.cls-60{fill:#d4d4d4;}.cls-61{fill:#404347;}.cls-62{fill:#53575c;}.cls-63{fill:#eee0d7;}.cls-64{fill:#a79d97;}.cls-65{fill:#6c7279;}</style><linearGradient id="linear-gradient" x1="6308.97" y1="345.55" x2="6457.99" y2="345.55" gradientTransform="matrix(-1, 0, 0, 1, 7960.36, 0)" gradientUnits="userSpaceOnUse"><stop offset="0" stop-color="#e79d5a"/><stop offset="1" stop-color="#f2d05f"/></linearGradient><linearGradient id="linear-gradient-2" x1="6410.9" y1="446.32" x2="6479.21" y2="446.32" xlink:href="#linear-gradient"/><linearGradient id="linear-gradient-3" x1="6592.78" y1="908.33" x2="6602.47" y2="908.33" gradientTransform="matrix(1, 0, 0, -1, -5234.89, 1816.65)" xlink:href="#linear-gradient"/><linearGradient id="linear-gradient-4" x1="7017.99" y1="908.33" x2="7027.68" y2="908.33" gradientTransform="matrix(1, 0, 0, -1, -6085.32, 1816.65)" xlink:href="#linear-gradient"/><linearGradient id="linear-gradient-5" x1="6660.62" y1="541.92" x2="6944.4" y2="541.92" gradientTransform="matrix(1, 0, 0, -1, -5644.67, 1083.85)" xlink:href="#linear-gradient"/></defs><title>loginМонтажная область 58</title><rect class="cls-1" x="-976.24" width="3006" height="1670"/><path class="cls-2" d="M2029.76,0V813.8c-55.17-26.23-129.9,13-159.56,120.43-89.37,323.86-587,203.12-488.13-44.56,50.52-126.52-32.52-168.5-127.85-111.72C1069.78,887.81,826.16,1052.1,711.1,947.06,527.77,779.69,921.27,551.4,777.38,444.43,689,378.76,504.23,642,368.42,520.82,250.8,415.91,502.36,83,227.9,132.56,59.29,163-29.66,89.84,8.93,0Z"/><path class="cls-3" d="M1846.6,610s-106.12-45.61-147.11,16.2,16.43,58,16.43,58,3.19,28.58,57.4-39C1798.86,613.24,1846.6,610,1846.6,610Z"/><path class="cls-4" d="M1865.11,433.81s-94.21-29.21-156.23,90.27S1591.1,653,1591.1,653,1804.16,691.24,1865.11,433.81Z"/><path class="cls-5" d="M1630.28,659.91c8.24,39.72,99.17-36.88,108.13-105.57s-8.88-119.1,9.2-163.16C1747.61,391.18,1589.65,464.29,1630.28,659.91Z"/><path class="cls-6" d="M1605.68,460.92a36.37,36.37,0,0,1,10.63,1.56c4.36-10.56,15.18-18.05,27.84-18.05,14.08,0,25.88,9.25,29,21.7a22.14,22.14,0,0,1,7.85-1.43c11.72,0,21.22,9,21.22,20.17H1575.79C1575.79,471.64,1589.17,460.92,1605.68,460.92Z"/><path class="cls-6" d="M1793.08,540.58a27.82,27.82,0,0,1,8.12,1.19A22.81,22.81,0,0,1,1822.42,528c10.73,0,19.73,7,22.15,16.55a16.72,16.72,0,0,1,6-1.09c8.93,0,16.18,6.88,16.18,15.37h-96.45C1770.29,548.76,1780.5,540.58,1793.08,540.58Z"/><path class="cls-7" d="M808.89,541.84h688.77a279.86,279.86,0,0,1,279.86,279.86V1003a279.86,279.86,0,0,1-279.86,279.86H808.89A279.86,279.86,0,0,1,529,1003V821.69A279.85,279.85,0,0,1,808.89,541.84Z" transform="translate(2306.55 1824.68) rotate(180)"/><path class="cls-8" d="M1502.36,331.91v27.28l12.3,2.48a64.21,64.21,0,0,0,6.83,16.47l-7,10.45,9.64,9.65,9.65,9.64,10.46-6.95a63.57,63.57,0,0,0,16.47,6.83l2.47,12.3h27.29l2.47-12.3a63.72,63.72,0,0,0,16.47-6.83l10.45,6.95,9.65-9.64,9.65-9.65-7-10.45a63.86,63.86,0,0,0,6.83-16.47l12.3-2.48V331.91l-12.3-2.47a63.57,63.57,0,0,0-6.83-16.47l7-10.46-9.65-9.65-9.65-9.64-10.45,6.95a63.72,63.72,0,0,0-16.47-6.83l-2.47-12.3h-27.29l-2.47,12.3a63.57,63.57,0,0,0-16.47,6.83l-10.46-6.95-9.65,9.64-9.64,9.65,7,10.46a63.92,63.92,0,0,0-6.83,16.47Zm26.71,13.64a47.81,47.81,0,1,1,47.8,47.8A47.8,47.8,0,0,1,1529.07,345.55Z"/><path class="cls-9" d="M1481.14,440.07v12.5l5.64,1.14a29.36,29.36,0,0,0,3.13,7.55l-3.19,4.79,4.43,4.43,4.42,4.42,4.79-3.19a29.36,29.36,0,0,0,7.55,3.13l1.14,5.64h12.51l1.13-5.64a29.21,29.21,0,0,0,7.55-3.13l4.79,3.19,4.43-4.42,4.42-4.43-3.19-4.79a29,29,0,0,0,3.13-7.55l5.64-1.14v-12.5l-5.64-1.14a29,29,0,0,0-3.13-7.55l3.19-4.79-4.42-4.42-4.43-4.43-4.79,3.19a29.21,29.21,0,0,0-7.55-3.13l-1.13-5.64h-12.51l-1.14,5.64a29.36,29.36,0,0,0-7.55,3.13l-4.79-3.19-4.42,4.43-4.43,4.42,3.19,4.79a29.36,29.36,0,0,0-3.13,7.55Zm12.25,6.25a21.92,21.92,0,1,1,21.91,21.92A21.91,21.91,0,0,1,1493.39,446.32Z"/><path class="cls-10" d="M1825.42,794.21l18-15.7a3.55,3.55,0,0,0-4.66-5.35L1826,784.26,1807.87,764a3.55,3.55,0,0,0-5.29,4.74Z"/><polygon class="cls-11" points="1002.74 495.71 979.42 495.71 986.56 480.9 1009.88 480.9 1002.74 495.71"/><polygon class="cls-11" points="1013.65 495.71 1008.1 495.71 1015.24 480.9 1020.79 480.9 1013.65 495.71"/><polygon class="cls-11" points="1094.22 478.08 999.8 478.08 1002.93 470.67 1097.36 470.67 1094.22 478.08"/><polygon class="cls-10" points="1854.95 666.59 1824.56 666.59 1833.86 647.29 1864.26 647.29 1854.95 666.59"/><polygon class="cls-10" points="1869.17 666.59 1861.93 666.59 1871.23 647.29 1878.48 647.29 1869.17 666.59"/><rect class="cls-12" x="1412.22" y="759.93" width="154.04" height="154.05" transform="translate(2978.48 1673.91) rotate(180)"/><rect class="cls-13" x="1577.97" y="594.07" width="154.04" height="154.04" transform="translate(3309.99 1342.19) rotate(180)"/><rect class="cls-13" x="1151.69" y="759.2" width="154.04" height="154.04" transform="translate(2457.42 1672.45) rotate(180)"/><rect class="cls-12" x="985.94" y="759.2" width="154.04" height="154.04" transform="translate(2125.92 1672.45) rotate(180)"/><rect class="cls-13" x="1412.22" y="924.96" width="154.04" height="154.04" transform="translate(2978.48 2003.95) rotate(180)"/><rect class="cls-14" x="1412.22" y="1090.71" width="154.04" height="154.04" transform="translate(2978.48 2335.47) rotate(180)"/><rect class="cls-13" x="1151.69" y="1090.71" width="154.04" height="154.04" transform="translate(2457.42 2335.47) rotate(180)"/><rect class="cls-13" x="1577.97" y="925.32" width="154.04" height="154.05" transform="translate(3309.99 2004.69) rotate(180)"/><path class="cls-14" d="M985.94,1090.71s.11,71.31,16.83,131.75l35.62,22.3H1164c-23.87-63.51-24-154-24-154Z"/><polygon class="cls-15" points="1038.39 1244.76 1038.39 1221.94 1002.77 1221.94 1038.39 1244.76"/><path class="cls-12" d="M1151.7,925s.1,71.3,16.82,131.74l35.62,22.3h125.61c-23.87-63.51-24-154-24-154Z"/><polygon class="cls-16" points="1204.14 1079 1204.14 1056.19 1168.52 1056.19 1204.14 1079"/><rect class="cls-13" x="985.94" y="594.18" width="154.04" height="154.04" transform="translate(2125.92 1342.41) rotate(180)"/><path class="cls-14" d="M1151.7,594.18s.1,71.31,16.82,131.75l35.62,22.3h125.61c-23.87-63.51-24-154.05-24-154.05Z"/><polygon class="cls-15" points="1204.14 748.23 1204.14 725.41 1168.52 725.41 1204.14 748.23"/><path class="cls-13" d="M1578,1090.71s.1,71.31,16.82,131.75l35.62,22.3H1756c-23.87-63.51-24-154-24-154Z"/><polygon class="cls-17" points="1630.42 1244.76 1630.42 1221.94 1594.8 1221.94 1630.42 1244.76"/><rect class="cls-14" x="735.05" y="759.93" width="154.04" height="154.05" transform="translate(1624.15 1673.91) rotate(180)"/><rect class="cls-13" x="735.05" y="594.07" width="154.04" height="154.04" transform="translate(1624.15 1342.19) rotate(180)"/><rect class="cls-13" x="569.3" y="594.07" width="154.04" height="154.04" transform="translate(1292.65 1342.19) rotate(180)"/><rect class="cls-13" x="569.3" y="924.96" width="154.04" height="154.04" transform="translate(1292.65 2003.95) rotate(180)"/><rect class="cls-14" x="569.3" y="1090.71" width="154.04" height="154.04" transform="translate(1292.65 2335.47) rotate(180)"/><rect class="cls-13" x="735.05" y="925.32" width="154.04" height="154.05" transform="translate(1624.15 2004.69) rotate(180)"/><path class="cls-13" d="M735.06,1090.71s.11,71.31,16.82,131.75l35.63,22.3h125.6c-23.86-63.51-24-154-24-154Z"/><polygon class="cls-17" points="787.51 1244.76 787.51 1221.94 751.88 1221.94 787.51 1244.76"/><path class="cls-13" d="M985.94,925s.11,71.3,16.83,131.74l35.62,22.3H1164c-23.87-63.51-24-154-24-154Z"/><polygon class="cls-17" points="1038.39 1079 1038.39 1056.19 1002.77 1056.19 1038.39 1079"/><rect class="cls-18" x="398.36" y="936.95" width="69.42" height="4.87"/><rect class="cls-18" x="398.36" y="946.12" width="69.42" height="20.46"/><rect class="cls-11" x="1297.42" y="491.57" width="37.6" height="2.81"/><rect class="cls-11" x="1297.42" y="495.6" width="37.6" height="7.6"/><rect class="cls-19" x="383.9" y="910.72" width="3.06" height="57.32"/><rect class="cls-20" x="1357.89" y="510.27" width="9.69" height="796.1" transform="translate(2725.47 1816.65) rotate(180)"/><rect class="cls-21" x="932.67" y="510.27" width="9.69" height="796.1" transform="translate(1875.04 1816.65) rotate(180)"/><rect class="cls-22" x="1015.95" y="526.87" width="283.78" height="30.12" transform="translate(2315.69 1083.85) rotate(180)"/><path class="cls-11" d="M849.15,429.68l24.31-10.57a3.93,3.93,0,0,0-3.14-7.21l-17.19,7.47-12.41-27.51a3.93,3.93,0,1,0-7.17,3.24Z"/><path class="cls-11" d="M809.43,383.66a49.68,49.68,0,1,1,12.09,69.21A49.74,49.74,0,0,1,809.43,383.66Zm5.81,4.08a42.58,42.58,0,1,0,59.32-10.35A42.63,42.63,0,0,0,815.24,387.74Z"/><path class="cls-23" d="M340.71,1286s-3.33-5-3.87-8a9.47,9.47,0,0,0-2.21-4.65s-12.6-1.83-17.44-6.33-15.1-16.73-19.94-13.06,3.51,19.1,8.45,23.77,11.63,12.84,17.71,12.23S337.77,1286.47,340.71,1286Z"/><path class="cls-24" d="M340.71,1285.22l-6.08-11.87s29.09-5.33,37.6-10.45c2.14-1.29,4.26-2.57,6.23-3.79a112.23,112.23,0,0,0,9.54-6.3c4.2-3.57,21-15.5,25.59-19.88s9.92-1.71,17-1.64,32.78,7.19,40.46,8.21,35.44,6.18,35.44,6.18C501.61,1259,340.71,1285.22,340.71,1285.22Z"/><path class="cls-25" d="M508.12,1245.24s-15.66,2.26-19.68,2.57-27.44,2.19-38.68,3.26-33.33.44-37.71,2.37-29.7,10.5-38,13.18-62.15,12.53-62.15,12.53-.92,7.3,3.85,12.9c0,0,23.74-2.12,36.26-.28s34.41-1,47.69-7,34.33-.53,46.1,3.6,56.74,7.46,62.36,6.2,16.8-6.66,24.91-15.49S508.12,1245.24,508.12,1245.24Z"/><path class="cls-26" d="M315.76,1292.05s-2-5.69-1.82-8.69a7.83,7.83,0,0,0-.73-4.44s-12.07-5.43-15.69-11-10.6-19.9-16.18-17.51-1.22,19.39,2.45,25.11,5.93,21,12,21.83S312.79,1291.8,315.76,1292.05Z"/><path class="cls-25" d="M543.31,1235.22s19.8,44.9-10.92,55.79c-24.5,8.69-69.67.69-69.67.69l27.79-43.78Z"/><path class="cls-27" d="M492.38,1065.77c7.54,1.67,3.05,20.59,8.09,47s21,30.58,21,30.58-7.08-11.73-6.31-24c.61-9.58,12.21-35.72.74-52.81-8.86-13.2-24.48-1.21-24.48-1.21Z"/><path class="cls-28" d="M503.72,1120.83l-14.65,15.08a32.39,32.39,0,0,0-2.2-8.94c-.51-1.38-1-2.62-1.45-3.58-.56-1.27-.95-2.05-.95-2.05l13.07-13.82Z"/><path class="cls-29" d="M486.28,1134.43a36.41,36.41,0,0,1-4.51,13.94c-3.95,6.69-10.48,17.79-9.55,25s4,9.84,6.77,12.44,10.39,21.36,11.31,28.58,1.51,22.22-.25,33.25c0,0,51.38,6,56.55-3,0,0-6.38-28.87-9.39-36.1s-9.3-50.51-12-57.86-9.07-14.48-13-19.58c-3.48-4.56-9.81-13-9.81-13Z"/><path class="cls-28" d="M479.86,1067.3c-6.78.46-21.34,5.58-21.59,23.71a56,56,0,0,0,2.71,8.41c1.6,3.65-.5,15.2.45,15.65a25.22,25.22,0,0,0,4.69.72s5.34,11.74,9.6,11.14,20.09-5.81,26-21.86S507.24,1065.48,479.86,1067.3Z"/><path class="cls-27" d="M458.27,1091s11.81,6.2,22.85,6.45,20.08,18,20.08,18,13.37-30-1.94-45.2S453.51,1070.47,458.27,1091Z"/><path class="cls-28" d="M483.7,1097.35c-.18-2.11,1.79-5.53,5.57-3.06s.3,13-2.64,12.36S483.89,1099.54,483.7,1097.35Z"/><path class="cls-30" d="M495.9,1115c-.21.33-5.58,9.14-9,12-.51-1.38-1-2.62-1.45-3.58C485.42,1123.39,493.1,1118.81,495.9,1115Z"/><rect class="cls-31" x="385.26" y="1249.26" width="73.06" height="6.36" transform="translate(1068.58 2404.9) rotate(169.31)"/><rect class="cls-31" x="331.89" y="1227.24" width="73.06" height="6.36" transform="translate(-437.99 2230.1) rotate(-124.44)"/><path class="cls-28" d="M400.2,1253.28c-.35-1.6,0-4.26,5-7s15.88-8.81,19.69-9,11.33.46,12.88.45-2.42,9.08-2.42,9.08Z"/><path class="cls-28" d="M436,1238.51s21-8.24,24.35-9.88,19.26-7,20.67-7.68,8-40.31,8.62-50.27,1.18-31.08,12.44-30.14,13.95,8.32,12.54,22.87-9.73,66.61-13.25,68.37-43.91,10.79-65.2,15C415.82,1250.89,436,1238.51,436,1238.51Z"/><path class="cls-26" d="M488.52,1173.78s16.23,3,25.58,4c0,0,11.64-33.15-4.21-38.45C491.11,1133,486.92,1158.71,488.52,1173.78Z"/><path class="cls-28" d="M761.39,1028.56s4.79-1.91,5.14-4.94c.29-2.57,2.43-5.76,3.08-6.74.88-1.32,2.19-6.34,3.72-5.27s-1.78,8.37-2.19,10,6.13-1.89,7.77-1.57,6.1,11.8,1.36,13.7-10.84.69-11.62,1.2a29.55,29.55,0,0,1-3.4,1.52Z"/><path class="cls-32" d="M636.83,1335.12s-3.33,6.16-5.51,8.61-10.52,6.82-10.56,14.08c0,7.88,14.06,5.7,19.57,5.41s5.94-4.5,8.26-9,4.67-3.7,5.1-7.3-2.25-11.84-2.25-11.84Z"/><path class="cls-32" d="M720.82,1334.4s6.79,7.53,13.7,9.1,11.73,3.59,11.78,7.91-19.86,7.16-27.76,2.8c-11.79-6.49-13-4.53-14.3-7.78s1.58-11.93,1.49-13C705.62,1332.19,720.82,1334.4,720.82,1334.4Z"/><path class="cls-33" d="M720.05,1330.8a31.89,31.89,0,0,1,.77,3.6c-.14.08-15.55,1.9-15.09-.93.38-2.29.92-4.79.92-4.79Z"/><path class="cls-33" d="M651.25,1332.74a28.6,28.6,0,0,1,.52,3.45c-.12.08-15.63,2.82-15.55,0a13.36,13.36,0,0,1,1.43-4.8Z"/><path class="cls-34" d="M706,1119.83s5.61,54,8.53,72.45c3.41,21.61,4.56,39.46,5.51,50.64,1.2,14.06,1.43,83.25,2.27,87.36s-18.58,1.14-18.58,1.14S694.21,1241,690.65,1226c-3.32-14-15.63-74-18.65-70.18s-6.79,70.07-9,81.07-9.05,97.12-9.05,97.12-15.45,3-19.56-.41c0,0-1.88-74.21-.45-94.83.55-7.86-9.29-94.24,3.32-129C643.9,1091.42,706,1119.83,706,1119.83Z"/><path class="cls-35" d="M602.18,1060.71c-3.26,8.9,26.63,31.21,22.92,31.89s-3.56,7.73-3.56,7.73-28.15-24.52-27.57-31.74c.32-4,22.36-62.32,25.73-64.73,2.29-1.65,16.71-7.42,24.19-10.26a52.2,52.2,0,0,1,6.63-2.27c1.71-.11,22.8,1.91,22.8,1.91s3,1,6.11,2.46c5.27,2.42,13.5,6.2,19.4,9,1.91.91,4.29,2.14,6.27,3.18q-.37,10.75-1.27,23.07s-1.1,17.94-1.2,36.06c-1,4.1-.79,13.64-.79,13.64-.25,9,.75,18.32,1,23.51.42,8.15,1.54,19.77,1.54,19.77l-10.25,4.18-44.92-.41-14.07-3.77s.84-36.12.63-46.62c-.2-10.12-2.33-36.4-2.75-37.92C633,1039.4,618,1017.53,602.18,1060.71Z"/><path class="cls-36" d="M703,1120.1s-30.85,2.63-57.88,0V1129s40.25,3.84,59.24-1.69Z"/><path class="cls-27" d="M676.72,994.53s5,11.8,8.78,38.15c1.45,10.12,4.13,27.17,6.08,44.56h0c1.53,13.71,5,27.78,6.16,38.28,1.15,10.87,4.63,42.9,4.63,42.9l8.44-5.32c1.21-1.11,2.9-2.56,2.41-4.13-2.32-7.49-6.76-32.26-9.39-53.86v0c-.13-1-.25-2.07-.37-3.1,0,0,0-.1,0-.16-.49-4.32-.91-8.46-1.2-12.25a38.92,38.92,0,0,1,.38-8.52c1.18-19.38,1.76-39.81,1.76-39.81.62-8.37,1-16.18,1.21-23.47C705.59,1007.76,679.12,995.25,676.72,994.53Z"/><path class="cls-27" d="M605.12,1058.4c-3.66,8,23.19,32.53,22.88,33.37-1.83,4.82-8.82,13.65-8.82,13.65s-41.58-44.67-41-50.17c.4-4,35.26-48.52,38.63-50.93,2-1.4,16.35-6.5,23.41-9.29,1.3-.51,5.51-2.09,6.66-2.53,1.5,1.67,12,13,15.69,56.08.61,7.26-1.33,22.64-2.63,35.19-1.38,13.39-2.91,23.84-4,35-2.21,22.06-3.76,39.61-3.76,39.61l-22-9.77c-3.55-1.78-9.69-6.42-8.36-10.16,5.08-14.22,12.7-41.16,12.7-53.64,0,0-5.8-41.67-7.74-48.39C626.74,1036.46,609.21,1049.43,605.12,1058.4Z"/><path class="cls-37" d="M652.46,993.57s-.14-7.24-2.93-21.88c-.75-3.92,22.76,10.31,22.76,10.31s-.07,1.38-.12,3.23c0,1,0,2.09,0,3.21,0,.39,0,.78,0,1.17,0,1,.07,2,.16,2.87a13.69,13.69,0,0,0,.78,2.82C674.06,997.54,660.38,999.24,652.46,993.57Z"/><path class="cls-38" d="M667.14,1001.16l3.89,5.23s-2.28,3.06-6.33.8Z"/><path class="cls-38" d="M670,1006.6s14.78,56.9,11.73,101.18l-5,8.76-4.65-9.17s-1.28-79.22-5.33-100.91Z"/><path class="cls-37" d="M671.31,996.28l-4.17,4.88s-6.7-1.3-8.66-4.8S671.31,996.28,671.31,996.28Z"/><path class="cls-39" d="M672.26,992s-.48,3.71-5.12,9.15l5.06,6.81L675,993.84Z"/><path class="cls-39" d="M652.08,988.46s8.29,10,15.06,12.7l-3.15,7.78L648.23,992Z"/><path class="cls-27" d="M773.84,1036.68s-35.71,38.8-44.14,36.73c-3.9-1-9.8-7.69-14.68-14-1.6-2.08-3.18-4.27-4.68-6.43h0c-6-8.64-10.67-16.92-10.67-16.92s-17.69-20.72-3.5-30c0,0,6-.6,9.39,1.91,3.14,2.31,10.78,16.9,12,19.61s10.89,21.77,11.79,22.33,10.38-5.12,15.44-8.53c8.19-5.51,18.47-15.12,18.47-15.12Z"/><rect class="cls-40" x="665.85" y="1120.58" width="14.43" height="10.95"/><path class="cls-30" d="M672.13,988.44c0,.39,0,.78,0,1.17-13.45-4.52-16-11.31-16-11.31,4.2,3,16.07,6.93,16.07,6.93C672.14,986.21,672.13,987.32,672.13,988.44Z"/><path class="cls-28" d="M623.15,1091.62a4.65,4.65,0,0,0,2.61,1.05c2.33,0,5-2.55,7.41-.25s-2.68,12.07-4.53,13.22-6-.92-10.52-6.34S623.15,1091.62,623.15,1091.62Z"/><path class="cls-28" d="M632.24,1091.77a95.3,95.3,0,0,1,9.73,4.06c4.4,2.15,9.57,5.43,9,6.55-.8,1.69-4.73-1.48-9.23-3.32-4.15-1.69-3.62-.65-3.62-.65s-.13-.3,4,2.42c4.47,2.94,9.16,6.28,8.74,7.2-.51,1.14-.67,1.24-2.47.44.94.68.88,1,.64,1.46-1.29,2.19-8.54-1.09-11.42-2.39,2.2,1,3.71,2,2.06,2.83-1.88.94-11.93-4.16-15.7-5.63C619.93,1103.13,632.24,1091.77,632.24,1091.77Z"/><path class="cls-27" d="M628,1091.77s-1,6-8.82,13.65c0,0-17.86-19.71-21-23.39l14-8.11Z"/><path class="cls-28" d="M678,944.53s7.25,8.11,5.1,10.16c-1.77,1.68,4.88,9.75,5.82,11.11s-3.11,3.47-3.8,4.64-.57,13.66-4,14.86-20.79-.54-26.23-4-13.9-23.08-13.05-32.41S665.21,930.38,678,944.53Z"/><path class="cls-27" d="M679.45,946.31s2.72-11.28-8.37-16.52-25.15,12-27,12.92-12.62,4.34-2.47,22.3c8.72,15.42,9.55,16,9.55,16s1.26-10.44,2.92-12.38c2.6-3,9.63-4.13,9.63-4.13s-5.37-7.94-.53-10.4S673.79,945.62,679.45,946.31Z"/><path class="cls-28" d="M657.09,960.76c-.74-1.09-3.43-5.88-7.12-1.81s5.78,12.06,6.58,12S663.3,969.92,657.09,960.76Z"/><path class="cls-41" d="M794.62,1068.82s2.16,8.47,2.45,9.75,13.59-2.24,13.59-2.24V1066S796.18,1067.42,794.62,1068.82Z"/><path class="cls-42" d="M796.81,1077.49s-3.72,5.65-7.62,8.37-19,6.21-21.14,8.81c-1.59,1.89-3.79,9,20.35,5.76,17.15-2.31,25.61-1.73,27.15-4.72s-4.89-20.3-4.89-20.3S807,1077.4,796.81,1077.49Z"/><rect class="cls-43" x="771.7" y="817.57" width="6.1" height="580.42" transform="translate(-103.62 80.22) rotate(-5.56)"/><rect class="cls-43" x="869.94" y="808.04" width="6.1" height="580.42" transform="translate(-102.23 89.68) rotate(-5.56)"/><rect class="cls-43" x="747.53" y="822.42" width="98.7" height="6.1" transform="translate(-75.82 80.61) rotate(-5.53)"/><rect class="cls-43" x="751.97" y="868.1" width="98.69" height="6.1" transform="translate(-80.97 82.11) rotate(-5.58)"/><rect class="cls-43" x="756.4" y="913.78" width="98.7" height="6.1" transform="translate(-84.98 82.32) rotate(-5.56)"/><rect class="cls-43" x="760.83" y="959.46" width="98.69" height="6.1" transform="translate(-89.24 82.82) rotate(-5.55)"/><rect class="cls-43" x="765.27" y="1005.14" width="98.7" height="6.1" transform="translate(-93.64 83.46) rotate(-5.55)"/><rect class="cls-43" x="769.7" y="1050.82" width="98.69" height="6.1" transform="translate(-98.03 84.1) rotate(-5.55)"/><rect class="cls-43" x="774.13" y="1096.5" width="98.7" height="6.1" transform="translate(-102.44 84.76) rotate(-5.55)"/><rect class="cls-43" x="778.57" y="1142.18" width="98.7" height="6.1" transform="translate(-106.38 85) rotate(-5.52)"/><rect class="cls-43" x="783" y="1187.86" width="98.7" height="6.1" transform="translate(-110.69 85.59) rotate(-5.52)"/><rect class="cls-43" x="787.43" y="1233.54" width="98.7" height="6.1" transform="translate(-115.07 86.22) rotate(-5.52)"/><rect class="cls-43" x="791.87" y="1279.22" width="98.69" height="6.1" transform="translate(-120.14 87.43) rotate(-5.55)"/><rect class="cls-43" x="796.3" y="1324.89" width="98.7" height="6.1" transform="translate(-124.6 88.12) rotate(-5.56)"/><rect class="cls-43" x="800.73" y="1370.57" width="98.7" height="6.1" transform="translate(-129 88.76) rotate(-5.56)"/><path class="cls-28" d="M664.64,738.53a9,9,0,0,0,2.13,2s1.66.63,2.81,1.14a8.85,8.85,0,0,1,.88.44,16.6,16.6,0,0,0,4.7,2.49c2.27.65,12.54,3,12.54,3l2.39-6.09,1.71-4.93s-9.5-12.31-11.55-13.17l-.6-.21c-1.8-.55-3.37-.21-4.35-.39-.36-.07-4-.48-4.77.28a3.57,3.57,0,0,0-1.23,3.24s-2,2.14-2.19,4.13a5.3,5.3,0,0,0-1.43,4.45S663.93,737,664.64,738.53Z"/><path class="cls-12" d="M774.73,818.45c-2.37-1.53-5.44-3.6-16.07-8.91-19.78-9.9-44.2-27.84-48.85-30.43-7.14-4-29.69-31.55-29.69-31.55,1.16-4.15,11.85-12.48,11.85-12.48s34.2,32.39,41.67,36.38c6.43,3.42,38.17,6.89,46.92,7.79l2.23.22C791.92,791.93,779.83,821.73,774.73,818.45Z"/><path class="cls-42" d="M778.22,890.25S768.54,926.18,766,939c-2.22,11.19-6.69,41-7.33,48.08s28.56,75.68,31.6,88.07l26.6-4.27s-28.06-71.39-20.74-87.26C807,960.06,808.43,960.77,817,941.33s28.22-19.89,33.5-56C850.5,885.37,785.36,878.81,778.22,890.25Z"/><path class="cls-28" d="M825.53,715.67s-17.67-6.6-25.82,6.85-7.36,40.36,1.55,43.67,22.27,1.58,26.83-6.83,8.68-20.58,8.48-28.71S830.16,718,825.53,715.67Z"/><path class="cls-28" d="M804.22,765.37s.72,4.63-.46,6.91S826,774.62,826,774.62a152.76,152.76,0,0,1,5.5-22.89C835.07,741.25,804.22,765.37,804.22,765.37Z"/><path class="cls-44" d="M831.48,751.73s-1.62,2.66-8.21,1.63-14.63-9.8-17.39-10.76S803.1,740,803.1,740l-1.72,2.51-2.92.19s2.66-7.85-1.36-11.05,4.18-25.39,25.32-18c0,0,16.24,4.47,15.64,13.71S835.11,747.13,831.48,751.73Z"/><path class="cls-28" d="M803.54,736.66c.37-1.55,4.31-6,5.82-1.24S807.08,746.53,805,746,802.6,740.58,803.54,736.66Z"/><path class="cls-12" d="M870.91,832.91c-.19,2.32-2.83,4.82-4.64,6.06a7.65,7.65,0,0,1-4,1.33l-1,0h0l-18.36.63S829.19,796.85,854.79,780C855.58,780.11,872.69,811.65,870.91,832.91Z"/><path class="cls-42" d="M815.56,1095.71c-1.55,3-10,2.41-27.16,4.72a78.36,78.36,0,0,1-11.28.83l-1-10.32c5-1.74,10.85-3.54,13.07-5.08,3.9-2.72,7.62-8.37,7.62-8.37,10.18-.09,13.85-2.09,13.85-2.09S817.1,1092.72,815.56,1095.71Z"/><path class="cls-12" d="M804.21,770.94s14.4-3.36,22.52-.61l1.23,1.13s2.46,4.73-6.83,5.14S797.25,777.68,804.21,770.94Z"/><path class="cls-41" d="M860.5,1108.48s2.16,8.48,2.45,9.75,13.59-2.23,13.59-2.23v-10.38S862.06,1107.08,860.5,1108.48Z"/><path class="cls-42" d="M850.5,885.37a281.49,281.49,0,0,1,6.28,40c1.33,18.5,3.74,38.8,5.66,58.15,2.14,21.57,8.25,56.45,8.56,68s10,62,10,62l-24.85,2.86s-16.14-89.13-20-98.24-22.72-74.07-23.35-81.36S850.5,885.37,850.5,885.37Z"/><path class="cls-42" d="M862.69,1117.16s-3.72,5.65-7.62,8.36-18.94,6.21-21.14,8.82c-1.59,1.88-3.79,9,20.35,5.75,17.15-2.31,25.61-1.73,27.15-4.71s-4.89-20.31-4.89-20.31S872.87,1117.06,862.69,1117.16Z"/><path class="cls-12" d="M773.19,935.13c-2.12-.3,5.26-63.39,4.69-67.34-.38-2.64-.32-23.15-.16-35.93l-2.31-12.93c-1.28-.93-3-2-5.06-3.2-3.21-1.85-7.23-4-11.69-6.19.52-3.06.88-5.47,1-6.87a25.84,25.84,0,0,1,13.07-19.92,21.83,21.83,0,0,1,3-1.49c1.65-.69,3.26-1.37,4.83-2,10.42-4.29,23.65-8.31,23.65-8.31h21.26s16.19,3.23,25.84,7.18a17.84,17.84,0,0,1,3.48,1.91l-2.89,60.62a.08.08,0,0,1,0,0,.2.2,0,0,1,0,.07c-1.3,8.53-2.67,18.59-3.13,25.65-.18,2.88,3.11,18.34,4.83,32.54l6,34S856.12,947,773.19,935.13Z"/><rect class="cls-45" x="461.4" y="688.49" width="0.9" height="94.33"/><rect class="cls-45" x="397.47" y="688.49" width="0.9" height="94.33"/><rect class="cls-45" x="333.54" y="688.49" width="0.9" height="94.33"/><rect class="cls-45" x="269.6" y="688.49" width="0.9" height="94.33"/><rect class="cls-45" x="205.67" y="688.49" width="0.9" height="94.33"/><rect class="cls-45" x="451.67" y="788.41" width="10.17" height="3.28" transform="translate(913.52 1580.1) rotate(180)"/><rect class="cls-45" x="446.53" y="676.87" width="15.31" height="2.46" transform="translate(908.38 1356.19) rotate(180)"/><rect class="cls-45" x="440.12" y="681.41" width="21.72" height="2.46" transform="translate(901.97 1365.28) rotate(180)"/><rect class="cls-45" x="380.63" y="676.87" width="17.98" height="2.46" transform="translate(779.23 1356.19) rotate(180)"/><rect class="cls-45" x="387.11" y="681.41" width="11.49" height="2.46" transform="translate(785.72 1365.28) rotate(180)"/><rect class="cls-45" x="322.39" y="676.87" width="11.14" height="2.46" transform="translate(655.93 1356.19) rotate(180)"/><rect class="cls-45" x="320.55" y="681.41" width="12.98" height="2.46" transform="translate(654.09 1365.28) rotate(180)"/><rect class="cls-45" x="253.38" y="676.87" width="16.23" height="2.46" transform="translate(522.98 1356.19) rotate(180)"/><rect class="cls-45" x="256.62" y="681.41" width="12.98" height="2.46" transform="translate(526.23 1365.28) rotate(180)"/><rect class="cls-45" x="196.43" y="676.87" width="9.69" height="2.46" transform="translate(402.55 1356.19) rotate(180)"/><rect class="cls-45" x="198.37" y="681.41" width="7.76" height="2.46" transform="translate(404.49 1365.28) rotate(180)"/><rect class="cls-45" x="387.74" y="788.41" width="10.17" height="3.28" transform="translate(785.66 1580.1) rotate(180)"/><rect class="cls-45" x="323.36" y="788.41" width="10.17" height="3.28" transform="translate(656.9 1580.1) rotate(180)"/><rect class="cls-45" x="259.43" y="788.41" width="10.17" height="3.28" transform="translate(529.04 1580.1) rotate(180)"/><rect class="cls-45" x="195.5" y="788.41" width="10.17" height="3.28" transform="translate(401.18 1580.1) rotate(180)"/><path class="cls-45" d="M228.28,754.8c19.94,0,37.27-8.62,55.34-17.61,22.31-11.09,45.38-22.57,76.12-19.42,19.62,2,31.94,10,42.81,17.05,9.84,6.38,19.15,12,31.75,12.48,20.36.77,27.43-7.92,27.55-8.44v-5.58h0c0,.1-4.48,9.85-27.53,9.73-11.35-.06-19.73-5.49-29.44-11.79-11.27-7.31-24.05-15.61-44.71-17.72-32-3.26-55.6,8.49-78.46,19.85-23.91,11.9-46.73,23-75.59,13.37v4.58A65.17,65.17,0,0,0,228.28,754.8Z"/><path class="cls-45" d="M348,753.73c14.72,0,26.39-9.9,37.82-19.59,8.67-7.35,17.66-14.86,28-18.56,31.68-11.31,47.88,9.34,48,9.52v-6.28c-.18-.22-3.07-4-11.43-7.55-7.61-3.27-20.39-5.87-38,.26-11.17,3.88-20.43,11.74-29.4,19.34-18.19,15.42-33.89,28.74-61.17,7.88-20.66-15.8-40.13-30.85-59.29-36.35C243.82,697,224.28,701,206,719.25l.13,5.7c38.85-39,71.93-14.3,113.13,17.2C330.16,750.5,339.56,753.73,348,753.73Z"/><path class="cls-37" d="M1858.78,1328.66s.17-3-5.84-6.43l7.78-8.25a50.1,50.1,0,0,1,9.31,6.74C1874.66,1325,1858.78,1328.66,1858.78,1328.66Z"/><path class="cls-37" d="M1671.88,1332.29s.6-7.31-1.68-10.87l9.74-2s5.58,8,5.29,12.72S1671.88,1332.29,1671.88,1332.29Z"/><path class="cls-37" d="M1841.24,1357.64c.1,2.75,0,4.27,8.37,4.1s16.2-10.48,21.63-17.73,12.69-10.85,7.9-15.48c-.6-.57-1.22-1.14-1.85-1.72-4.55-4.09-9.9-8.08-10.62-8.91s-8,9.53-8,9.53.8,5.11-.45,8.14-3,14-7,15.9h0C1847.29,1353.39,1841.22,1357,1841.24,1357.64Z"/><path class="cls-37" d="M1647.39,1356.22c5.6-.29,21.45-1.64,30.3-1s12.23-.82,11.4-7.13c0-.34-.1-.69-.16-1-1-6.17-3.73-13.86-4-16.45s-11.39-.83-11.39-.83-5.56,8.84-8.72,10.71-12.78,5.79-16.46,7.58c-.27.13-.56.25-.87.37h0c-3.9,1.47-10.57,1.88-11.46,4C1635.09,1354.76,1641.79,1356.51,1647.39,1356.22Z"/><path class="cls-46" d="M1647.39,1356.22c5.6-.29,21.45-1.64,30.3-1s12.23-.82,11.4-7.13c0-.34-.1-.69-.16-1-2.17-1.41-17.44,0-26.44,1.47s-15-.09-15-.09h0c-3.9,1.47-10.57,1.88-11.46,4C1635.09,1354.76,1641.79,1356.51,1647.39,1356.22Z"/><path class="cls-46" d="M1841,1357.55c.1,2.75.22,4.36,8.64,4.19s16.2-10.48,21.63-17.73,12.69-10.85,7.9-15.48c-.6-.57-1.22-1.14-1.85-1.72-.26.22-10.85,9.73-14.1,16.22-5.43,10.8-11.7,8.39-12,8.44h0C1847.29,1353.39,1841,1356.94,1841,1357.55Z"/><path class="cls-47" d="M1632.81,1248.31c9.23,14,37.39,81.33,37.39,81.33l22.17-2.29s-15.71-47.22-23.41-64.64c-5.7-12.89-13.53-19.24-6.12-22.87,6.25-3.07,44-18.18,59.92-26.8a55.33,55.33,0,0,0,4.94-3,12.26,12.26,0,0,0,1.32-1c7.33-6.65-9.19-53.56-34.84-38.58,0,0-55.82,44.6-60,52.16S1623.58,1234.31,1632.81,1248.31Z"/><path class="cls-47" d="M1695.36,1169s37.93,53.17,72.33,81.9c9.74,8.13,17.66,14.87,31.57,25.28,7.38,5.53,20.46,17.16,31.09,26.83l.44.4c7.58,6.91,13.84,12.75,15.77,14.55l.18.17.22.2,6.94,7,9.92-9.68s-11.85-14.31-18.62-25.38c-9.51-15.52-23.38-32.75-30.55-37.72-12.29-8.51-24.26-13.57-28.78-21.63s-20.1-40.51-20.1-40.51-3.6-33.79-24.34-41.25C1721.89,1142.2,1695.36,1169,1695.36,1169Z"/><path class="cls-37" d="M1673.55,1027.61a19.25,19.25,0,0,1,2.35,5.21,45.51,45.51,0,0,1,1.33,5.64,67.46,67.46,0,0,1,.86,7.24s21.84-6.43,17.82-11.34-3-20.75-3-20.75S1670.32,1023,1673.55,1027.61Z"/><path class="cls-28" d="M1658,985.77s-5.32,5.34-1.76,19.37c0,0-.44,11.41-2,13.51s4.85,2.37,5.62,3.74,2.52,7.93,7.26,11.62,25.92-10,26.5-16.89,13.74-37.29-10.53-36.88S1658,985.77,1658,985.77Z"/><path class="cls-48" d="M1664.75,1109.89q1.37,2.35,3,4.92c3,4.64,6.62,9.85,11,15.9a51.08,51.08,0,0,1,3.16,4.63c5.62,9.93,10.2,26.85,11.75,33,.37,1.45.54,2.19.54,2.19,29.33.64,60.13-18.43,60.13-18.43-19.29-20.39-26.84-36.14-26.84-36.14a65.5,65.5,0,0,1-3.63-20c-1.1-23.72-7.69-36.8-14.09-47.15s-13.84-14.45-13.84-14.45L1678,1045.24c-2.09,6.73-9.41,14.24-16.59,30.7C1656.08,1088.08,1657.13,1096.72,1664.75,1109.89Z"/><path class="cls-49" d="M1655.25,1000.07s-4.85-29.31,24.15-26.11,16.56,36.53,13.46,47.32c0,0-.7-16.36-14.52-15.9S1661.45,1002.85,1655.25,1000.07Z"/><path class="cls-37" d="M1680.28,1001.07c1.51-3.12,7.53-1.94,7.19,2.67s-4.76,9.51-6.48,7.41S1678.07,1005.66,1680.28,1001.07Z"/><path class="cls-49" d="M1690.48,982.75s7.75-8.6,14.33,0-5.47,22.19-11.27,15.07A16.74,16.74,0,0,1,1690.48,982.75Z"/><path class="cls-30" d="M1675.9,1032.82a45.51,45.51,0,0,1,1.33,5.64c7.12-3.89,11.9-14.55,11.9-14.55-5,5-13.22,8.9-13.22,8.9Z"/><path class="cls-49" d="M1694.54,979.8a14.06,14.06,0,0,1,11.7-5.86c8.16-.08,18.19,12.28,15.65,30.24s3.26,39,20.31,56.23c0,0-29.76-16-32.51-39.69S1698.58,997,1698.58,997Z"/><path class="cls-28" d="M1623.66,1153.76s-7.81.15-9.65.43-5.78,1.35-6.31,1-2.25-7.7-3.59-9.29-6.09-17.82-5.23-17.7,3.81,4.31,9.89,11.43,13,4.5,15.48,6.18S1623.66,1153.76,1623.66,1153.76Z"/><path class="cls-50" d="M1727.7,1210.09s-16.22-19-17.46-21.32c.66,1.46,9.16,20.2,12.52,24.27A55.33,55.33,0,0,0,1727.7,1210.09Z"/><path class="cls-51" d="M1664.75,1109.89q1.37,2.35,3,4.92s9.22-28.06,10.12-35C1677.88,1079.83,1669.16,1099.47,1664.75,1109.89Z"/><path class="cls-48" d="M1620.32,1145s29.07-6.63,43.3-20.12c3.72-3.53,18.36-60.57,18.36-60.57s4-14.41,16.77-10.26,7.64,18.68,7.64,18.68-17.62,45.14-26.94,62.69c-7.76,14.61-59.35,19.46-59.35,19.46Z"/><polygon class="cls-52" points="1698.31 1035.97 1694.21 1030.82 1676.6 1041.52 1676.49 1050.45 1698.31 1035.97"/><path class="cls-53" d="M1586.18,1114.54a155.74,155.74,0,0,1,24.14,54.86l0,0a157.05,157.05,0,1,1-24.16-54.89Z"/><path class="cls-54" d="M1593.81,1073.36l-135.9,130.24-12.51-187.86A188.35,188.35,0,0,1,1593.81,1073.36Z"/><path class="cls-55" d="M1590.48,1111.53a160.87,160.87,0,0,1,24.94,56.67l-157.51,35.4,116.54-111.69A159.82,159.82,0,0,1,1590.48,1111.53Z"/><path class="cls-46" d="M1625.07,1166l0,0a170.89,170.89,0,0,1,4,42.8l-171.2-5.26Z"/><path class="cls-56" d="M1134.19,1313.63s-4.76,7.12-11.43,8.66-13.25,4-13.3,8.19,19.3,6.73,26.93,2.48c11.41-6.33,12.56-4.42,13.83-7.59s-1.52-11.64-1.44-12.65C1148.89,1311.47,1134.19,1313.63,1134.19,1313.63Z"/><path class="cls-33" d="M1134.93,1310.12a30.31,30.31,0,0,0-.74,3.51c.13.07,15,1.85,14.59-.91-.37-2.24-.89-4.67-.89-4.67Z"/><path class="cls-56" d="M1184.38,1313.16s-3.39,6.81-9.19,9.13c-6.2,2.48-11.18,5.33-11.06,9.43s15.15,8.27,26.1.39c6.91-5,9.1-5,10.21-8.14s-1.92-11.27-1.89-12.26C1198.61,1310.49,1184.38,1313.16,1184.38,1313.16Z"/><path class="cls-33" d="M1184.21,1309.62a33.11,33.11,0,0,0,.17,3.54c.13.06,14.54,1.25,14.17-1.45a21.91,21.91,0,0,0-1.39-4.74Z"/><path class="cls-57" d="M1131.36,1101.58s-13.39,59.06-16.45,77.05c-2.6,15.32-4.68,31.27-3.43,42.32,1.55,13.69,20.92,84.62,20.11,88.63s20.27.65,20.27.65-14.73-79.13-11.79-93.85c2.18-10.91,21.28-83.37,24.21-79.65s6.56,68.38,8.73,79.11,8.82,95.55,8.82,95.55,14.88,2.2,18.85-1.16c0,0,1.81-72.43.43-92.55-.52-7.67,9-92-3.21-125.89C1191.45,1073.86,1131.36,1101.58,1131.36,1101.58Z"/><path class="cls-58" d="M1073.08,1047.88c9.54-1.34,39.57,12,42.29,10.95,1.88-.68,6.29-15,9.43-25.89,1.86-6.43,3.28-11.63,3.48-12.05v0a64,64,0,0,0,.1,11.65c0,.42.23.53.28,1a2.66,2.66,0,0,0,.12.56c.7,1.59,1,4.59,1.6,7.08a44.55,44.55,0,0,1,1.1,13.91v0a.49.49,0,0,0,0,.12c0,.12,0,.23,0,.35v.15c.27,9.3-.37,19.32-.64,24.66-.42,8.27,2.3,12,2.38,12.09h0l2.88-.41,2.08-.29h0l2.78-.38,10.89-1.54,3.94-.55.93-.13,6.9-1,19.46-2.74,2.13-.3.88-.12,7.33-1,3.32-.46h0s2.82-20,3-30.76c.2-9.92,5.51-30.05,6.37-33.27,0,0,0,0,0-.06s0-.06,0-.09l0-.14a.64.64,0,0,1,0-.07V1019s15.88,16.68,19,24c.94,2.21,3.82,8.21,7.47,15.53,2.5-4.78,4.07-8.09,4.07-8.92,0-.11,0-.21,0-.33-.23-7.2-7.77-36.38-13.72-55.44-4.62-9.29-8.61-16.8-9.89-17.71-1.93-1.39-10.08-4.88-17.2-7.71l-.69-.27-2-.77-.94-.36-.51-.19-.4-.15h0a53.1,53.1,0,0,0-6.82-2.33h-.44c-.24,0-.54,0-.91,0-4.39.26-17.51,1.49-21.73,1.89l-1.32.13h0l-5,2.3h0l-.28.13c-1.83.84-4,2-6.19,3.18-4.39,2.4-9.24,5.21-13.25,7.13s-9.35,4.49-9.81,4.86l-20,57.6-34.66-6.33Z"/><path class="cls-59" d="M1133.25,1092.41s-1.46,1.75-1.89,9.17c0,0,60.18-7,66.54-9.79,0,0,.25-8.17-1.1-8.31S1133.25,1092.41,1133.25,1092.41Z"/><path class="cls-28" d="M1184.57,962.27c-.19,9.44-18.48,14.61-18.48,14.61s-7.64-9.59-5.82-10.51c.72-.36,1-1.79,1.1-3.4a33.63,33.63,0,0,0-.1-4.28c-.06-.67-.11-1.1-.11-1.1s2.61-2.76,5.94-6c5.8-5.74,13.79-13.1,13.8-10.17a3.05,3.05,0,0,1-.06.55C1179.43,948.52,1184.57,962.27,1184.57,962.27Z"/><path class="cls-56" d="M1183.05,1084.93s1.31,8.28,1.43,10.44l2.78-.56s-.76-8.76-1.22-10.23Z"/><path class="cls-56" d="M1138.27,1091.45s-1.06,7.52-1.08,10.37l3-.39s.6-9.4.94-10.38Z"/><path class="cls-30" d="M1177.52,948.43h0c0,.06-.81,1.21-2.13,2.88-2.81,3.53-8.09,9.33-14,11.66a33.63,33.63,0,0,0-.1-4.28,10.17,10.17,0,0,1-1.82-.22,56.62,56.62,0,0,1,4-5.82l3.67-1.1Z"/><path class="cls-28" d="M1181,941.5c-1.59,3.45-3.09,5.94-3.52,6.93h0a12.16,12.16,0,0,1-2.13,2.88c-3,3.24-8.62,7.53-14.12,7.38a10.17,10.17,0,0,1-1.82-.22,8.64,8.64,0,0,1-6.29-4.35c-11.41-22.33-3.15-40.6-3.15-40.6s31.19-8.82,36.07.57C1189.51,920.68,1184.75,933.42,1181,941.5Z"/><path class="cls-60" d="M1150,913.52s-2.9-.16-3.62-5.65.73-6.93.73-6.93,12.87-5.39,17.5-6.09,16-1.38,18.66,1.67c0,0,6.48-1.5,8.24,9.25,2.8,17.05-9.53,33.61-9.53,33.61s.1-11.14-2.36-12.62-4.58,2-4.58,2l-5,.9s7.63-16.48-1.53-17.1S1155.25,914.48,1150,913.52Z"/><path class="cls-28" d="M1175.19,924.36c.48-4.91,9.36-6.79,8.76-1.64s-5,10.09-7,9.91S1174.83,928.1,1175.19,924.36Z"/><path class="cls-61" d="M1236.81,1049.57c0-.11,0-.21,0-.33-.17-7.18-3.7-35.92-9.65-55-2.89-9.26-3.55-15.72-4.67-16.52-1.94-1.39-19.17-6.49-26.49-9.36l-.69-.27-2-.77-.94-.36-.51-.19-.4-.15,0,0a118.52,118.52,0,0,0-8.07,10.31c-7.56,10.74-17.39,28.13-15.89,44.19.49,5.15,1.09,12.55,2.09,20.86.08.71.17,1.42.26,2.15.25,1.91.51,3.86.8,5.84.18,1.18.36,2.38.55,3.58,2,12.45,8.27,20.93,13.84,31.09,0,.08.09.17.14.26s0,.09.08.14c.12.21.23.43.35.65l.58,1.08.32.62c1.06,2,2.1,4.13,3.11,6.23.66,1.36,1.3,2.71,1.93,4.07l.19.42s1,2.38,2.34,5.44c.49,1.12,1,2.33,1.53,3.56l1.07,2.49.89,2.07,1.57,3.67c.28.67.47,1.13.54,1.28,1.91,4.79,3.29,8.49,3.93,10.22.25.7.39,1.07.39,1.07l19.25-10.62c3.65-1.84,1.74-11.69.37-15.53a88.5,88.5,0,0,0-4.56-10.18c-.74-1.45-1.52-2.92-2.31-4.39,6-10.53,12.13-21.39,16-28.76C1235.24,1053.71,1236.81,1050.4,1236.81,1049.57Zm-30.61-30.13s0,0,0-.06,0-.06,0-.09a1,1,0,0,0,0-.14.64.64,0,0,1,0-.07v0s9.37,14.63,8.66,27.35c-.11,2-2.08,7-4.94,13.39h0c-1,2.34-2.2,4.86-3.44,7.49l-.13-.33c-1.8-4.37-3-8.47-3-12C1203.49,1054.9,1204.28,1027,1206.2,1019.44Z"/><path class="cls-61" d="M1060.28,1028.36l43.59,9.49,20.78-54.34c.46-.36,6.42-3.57,10.36-5.44,4.11-2,9.31-4.37,13.91-6.5l6-2.77.15.11s-2.58,8.57-5.91,30h0c-.11.72-.22,1.45-.34,2.19a2,2,0,0,1,0,.26c-.07.5-.15,1-.22,1.51l0,.18-.15,1c-.13.84-.25,1.7-.38,2.58-1.48,10.41-3.56,28.12-5.57,46h0c-1.58,14.1-5.18,28.56-6.33,39.36v0a74.68,74.68,0,0,1-1.5,8.11c-.08.36-.17.73-.25,1.1-3.23,13.62-9.49,32.91-9.49,32.91l-1.82-1.69-5.41-5a4.39,4.39,0,0,1-1.21-4.52c3-9.66,13.18-43.86,15-67.9v0c.59-7.55-1.62-14.67-2.9-21.41a1.15,1.15,0,0,0-.06.17c-1.07,3-2.27,6.22-3.46,9.38h0c-3.21,8.47-6.5,16.32-7.87,16.82-3,1.13-60.44-14.57-60.84-16.82Z"/><path class="cls-62" d="M1186.42,990.08l-8.9,5,3.81,3.88-10.13,54.64c-2.06-12.81-3-25-3.7-32.43-2.32-24.83,22.46-52.83,24-54.55,1.19.46,2.48,1,3.8,1.48Z"/><path class="cls-62" d="M1155.23,968.67s-3.32,10.85-7.2,38c-1.48,10.41-3.56,28.13-5.57,46l-2.07-51.17,4.24-4.6-3.77-4.71,8.06-20.58,6-2.77Z"/><path class="cls-63" d="M1191.94,966.74l-7.37-4.47s-.21,4-18.48,14.61l5.19,14.61Z"/><path class="cls-63" d="M1161.23,964.3s.29,4.37,4.86,12.58L1156,990.08l-.74-21.41Z"/><path class="cls-55" d="M1166.12,976.88s2,7.84,1.26,10c0,0-4.32,1.57-7.42-.39A34.59,34.59,0,0,1,1166.12,976.88Z"/><path class="cls-64" d="M1156,1090.07c-1.1-5.54-.06-22.13,0-22.84l.94.06c0,.17-1.08,17.17,0,22.59Z"/><path class="cls-65" d="M1163.66,1087.51s-8.85,1.06-11.78,1.79l.38,9.93,11.6-1.24Z"/><path class="cls-55" d="M1161.72,985.82s-9.87,24.94-8.26,52.86c1.67,28.94,4.41,39.44,4.41,39.44l6.09,7.63,2.68-9.39s-8.17-36.9-2.9-72.8c1-6.51,2.38-18.84,2.38-18.84Z"/><path class="cls-28" d="M1191.4,1103.6s-2.12,4.24-4.24,4.94-5.21,4.16-5.21,4.16l14.92,7.85s4-7.77,4.15-12.71S1191.4,1103.6,1191.4,1103.6Z"/><path class="cls-58" d="M1190,1104l-1,2s9.48,6.94,12,7.38l.88-2.65Z"/><path class="cls-61" d="M1189,1104.08s7.11,5.88,13.09,8.59l20.13-36.21-10.43-20.16S1189.46,1100.55,1189,1104.08Z"/><path class="cls-57" d="M1128.53,1033.78c-1.07,3-2.27,6.22-3.46,9.38a100.5,100.5,0,0,1-.27-10.22c.48-18.78,6.39-28.63,6.39-28.63-1.36,3.28-2,10.3-2.32,16.65-.33,6.69-.28,12.64-.28,12.64h0Z"/><path class="cls-57" d="M1219.06,1091.64,1203,1111.1l13.8-23.85C1217.54,1088.72,1218.32,1090.19,1219.06,1091.64Z"/><path class="cls-43" d="M1102,1067.24h-37.2a5.52,5.52,0,0,1-5.37-4.22l-16.16-66.72a5.53,5.53,0,0,1,5.37-6.83h37.2a5.53,5.53,0,0,1,5.37,4.23l16.16,66.72A5.52,5.52,0,0,1,1102,1067.24Z"/><path class="cls-28" d="M1056.54,1048.69c1.82-1.68,5.33-2.66,8.34-4.67s.49-4.08.49-4.08c3.09-1.06,2.76-2.47,2.36-3.43-.53-1.3-3.9-.93-3.9-.93a33.64,33.64,0,0,0,4.27-1.22c1.24-.55.82-2.72-1.1-3.41s-9.71,1.24-9.71,1.24,1.27-.62,5.12-2.55,4.69-3.69,2.42-4.53c-1.58-.59-4.68.64-10.63,4.63-4.47,3-4.11,3.41-4.11,3.41S1054.36,1050.71,1056.54,1048.69Z"/><path class="cls-11" d="M469,486.65c-14.9-1.23-26.17-12.66-25.16-25.5.05-9.59-1.58-20.64-4.87-32.85a58.47,58.47,0,1,1,70,4.21c-4,8.46-9,20.87-10.93,33.14a21.81,21.81,0,0,1-9.45,15.88,29.12,29.12,0,0,1-17.36,5.23C470.44,486.75,469.7,486.71,469,486.65ZM423.05,383a53.41,53.41,0,0,0,19.52,42.14l.58.49.2.73c3.54,12.95,5.3,24.71,5.23,34.95v.19c-.85,10.24,8.48,19.4,20.79,20.43a24.61,24.61,0,0,0,16.39-4.26,17.05,17.05,0,0,0,7.47-12.47l0-.18c2.1-13.15,7.48-26.36,11.62-35.12l.3-.62.57-.37A53.68,53.68,0,1,0,423.05,383Z"/><polygon class="cls-11" points="483.76 467.87 497.08 405.09 482.87 414.85 475.48 405.01 467.62 412.91 456.2 401.32 458.01 465.56 462.79 465.43 461.32 413.34 467.61 419.71 474.97 412.3 481.79 421.39 489.92 415.81 479.07 466.88 483.76 467.87"/><rect class="cls-11" x="448.06" y="480.81" width="41.47" height="16.71" transform="translate(895.48 1015.47) rotate(-175.25)"/><rect class="cls-11" x="442.38" y="463.78" width="54.81" height="26.9" transform="matrix(-1, -0.08, 0.08, -1, 898.46, 991.71)"/></svg>