<svg id="Layer_1" data-name="Layer 1" xmlns="http://www.w3.org/2000/svg" viewBox="0 0 268.95 82.71"><defs><style>.cls-1{fill:#fff;}</style></defs><title>loginArtboard 2 copy</title><path class="cls-1" d="M51,11.18q-.18,3.21-.24,8.31t0,11.55q.06,6.47.12,13.2T51,57.4q.06,6.42.06,11.48t.07,8.18a18.88,18.88,0,0,1-.07,3.29A1.39,1.39,0,0,1,49.6,81a2.37,2.37,0,0,1-1.21-.36c-.08-2.71-.16-5.13-.24-7.24S48,68.91,48,66.25l-.12-8c0-2.64-.08-5.14-.12-7.52s-.06-4.35-.06-5.91q0-7,.06-13.67t.18-11.79c.08-4,.2-7.84.37-11.44q-1.1,0-6.14.39t-12,1.06q-6.93.66-14.53,1.57T1.94,12.83q-1.71-.78.18-1.53A29.68,29.68,0,0,1,7.9,9.93q3.16-.55,7.35-1t8.58-.86c2.92-.26,5.79-.51,8.63-.74l7.66-.63c2.27-.18,4.15-.33,5.65-.43a10.65,10.65,0,0,0,2.5-.32c.16,0,.24-.36.24-.94V3.08q0-1.06.06-1.92c0-.58.14-.92.31-1a2.36,2.36,0,0,1,1-.16,1.38,1.38,0,0,1,1.58,1.37q.12,1.38.24,4.35l4.81-.27L64.38,5c3-.15,6.06-.3,9.3-.43l9-.35c2.75-.1,5.06-.16,6.93-.16a18.07,18.07,0,0,1,3.28.16A.81.81,0,0,1,93.5,5c0,.42-.28.68-.85.79a38.18,38.18,0,0,1-3.83.27c-2,.08-4.86.16-8.63.24s-8.82.27-15.14.58l-3.77.24c-1.54.1-3,.2-4.5.27s-3.24.2-5.35.36A11.93,11.93,0,0,0,51,11.18Z"/><path class="cls-1" d="M49.52,82.71l-.39,0A3.12,3.12,0,0,1,47.28,82l-.3-.29v-.41c-.08-2.81-.17-5.31-.25-7.5s-.15-4.69-.19-7.46V50.8s-.06-4.36-.06-5.93q0-7.07.06-13.68c0-4.42.1-8.39.18-11.81.07-3.61.18-7.1.32-10.39-1.05,0-2.73.17-5,.35-3.34.26-7.36.62-12,1.06s-9.47,1-14.5,1.56S5.9,13.18,1.89,13.8l-.3,0-.27-.12C1,13.56-.09,13.07-.06,12.06s1.18-1.5,1.61-1.67A30.63,30.63,0,0,1,7.54,9c2.11-.36,4.61-.71,7.4-1s5.66-.6,8.6-.87,5.8-.51,8.64-.74l7.66-.63,5.66-.43c1-.07,1.51-.12,1.82-.17,0,0,.2-.11.2-.11V3.83c0-.7,0-1.31.06-1.86a2,2,0,0,1,.7-1.66l.14-.08A3.42,3.42,0,0,1,49.7,0a2.22,2.22,0,0,1,2.41,2.12c.06.73.12,1.8.19,3.19l3.56-.21,7.41-.4q4.16-.23,8.72-.4T80.42,4C83,3.88,85.2,3.83,87,3.83A13.58,13.58,0,0,1,90.32,4a1.7,1.7,0,0,1,1.21,1.61A1.66,1.66,0,0,1,90,7.26a30.67,30.67,0,0,1-3.72.27c-1.89.08-4.62.15-8.11.23S69.87,8,64,8.3l-3.52.22c-1.44.1-2.85.19-4.22.26-1.21.07-2.66.16-4.34.28,0,.39-.12,1.11-.2,2.42-.11,2-.19,4.59-.23,7.73s0,6.8,0,10.81l.13,13.51q.06,7,.13,13.65t.06,11.91c0,3.59,0,6.36.06,8.47.07,3.59,0,3.71-.27,4A2.35,2.35,0,0,1,49.52,82.71ZM49.16,80l.36.05a.46.46,0,0,0,.41-.08c0-.27,0-1,0-2.88s-.06-4.73-.06-8.21,0-7.18-.06-11.46-1.3-13.16-1.3-13.16V31.05s1-8.19,1.06-11.58.12-6.19.24-8.34h0c.2-3.43.39-3.78.73-4.1l.25-.24.36,0c2.12-.16,3.91-.28,5.37-.35l3.38-.2-3.57.19-5.81.34,0-1c-.08-1.94-.16-3.39-.24-4.3,0-.34-.06-.48-.59-.48h-.27c0,.07,0,.15,0,.25a5.12,5.12,0,0,0,.14,1.86V5c-.2.41-.2,1.47-1,1.83-.12.06-.58-.25-.58-.25l.15,1h1l0,.47c-.17,3.57-.29,7.41-.37,11.41-.08,3.4-.14,7.37-.18,11.78s-.06,9-.06,13.66c0,1.56,0,3.52.06,5.89l.24,15.48c0,2.65.1,5.06.18,7.14S49.08,77.53,49.16,80Zm.86-.15a.1.1,0,0,0,0,0ZM26.37,8.79,23.71,9c-2.92.26-5.8.55-8.54.85s-5.21.65-7.3,1l-1.59.28q4.22-.59,9-1.16C19.1,9.56,22.81,9.15,26.37,8.79Zm63-4.18c-1.85,0-4.17.06-6.9.16l-3.76.14,1.21,0c3.71-.08,6.61-.16,8.62-.24l.89,0Zm3,.16Z"/><path class="cls-1" d="M56.16,56.62c-1,0-1.6-.36-1.64-1.06s-.06-1.76-.06-3.17v-9q0-3.18.12-4.62c.08-1,.22-1.53.43-1.69a1.68,1.68,0,0,1,1-.23,1.71,1.71,0,0,1,.91.19c.2.13.32.54.37,1.22s.08,1.71.12,3.09.06,3.36.06,5.91a45.9,45.9,0,0,1,3.89-6.81,28.09,28.09,0,0,1,3.77-4.43,13.78,13.78,0,0,1,3.4-2.42,8.18,8.18,0,0,1,2.92-.83,4.14,4.14,0,0,1,3.16.9,4.22,4.22,0,0,1,1.46,2.55A1.82,1.82,0,0,1,76,37.39c-.16.34-.61.5-1.34.5a1.32,1.32,0,0,1-1.4-.9,11.53,11.53,0,0,0-.66-1.6,1.14,1.14,0,0,0-1.28-.59c-.61.08-1.68.8-3.22,2.15a22.35,22.35,0,0,0-5.17,6.27,48.18,48.18,0,0,0-3,6.42q-1.09,3-1.82,5C57.62,56,57,56.62,56.16,56.62Z"/><path class="cls-1" d="M56.16,57.6c-2.33,0-2.6-1.52-2.63-2,0-.74-.06-1.82-.06-3.23v-9c0-2.12,0-3.7.12-4.7.12-1.35.34-2,.8-2.38a3.25,3.25,0,0,1,3.1-.09,2.44,2.44,0,0,1,.82,2c0,.68.08,1.73.12,3.12,0,.56,0,1.2,0,1.92a39.18,39.18,0,0,1,2.11-3.35,29.48,29.48,0,0,1,3.9-4.58,15,15,0,0,1,3.66-2.6,9,9,0,0,1,3.28-.92A5.08,5.08,0,0,1,75.3,33a5.16,5.16,0,0,1,1.78,3.12,2.7,2.7,0,0,1-.2,1.71,2.23,2.23,0,0,1-2.24,1.07A2.3,2.3,0,0,1,72.3,37.3a9.72,9.72,0,0,0-.61-1.47c0-.06-.12-.08-.26-.06s-.68.14-2.69,1.92a21.57,21.57,0,0,0-5,6A47.6,47.6,0,0,0,60.86,50Q59.77,53,59,55C58.4,56.71,57.43,57.6,56.16,57.6ZM55.7,38.3a5.24,5.24,0,0,0-.14.94c-.07.89-.11,2.32-.11,4.26v8.4c0,1.29,0,2.27.06,2.92,0,0,.12.13.61.13.3,0,.66-.47,1-1.27q.68-1.87,1.71-4.66a45.39,45.39,0,0,1,2.84-6.15,22.36,22.36,0,0,1,5.06-6.13c2.09-1.85,3-2.16,3.5-2.23a2,2,0,0,1,2.15,1A13.36,13.36,0,0,1,73,37.18c0,.13.07.22.43.22a1.8,1.8,0,0,0,.45,0,.79.79,0,0,0,0-.41,3,3,0,0,0-1.06-1.87,3,3,0,0,0-2.28-.62,6.84,6.84,0,0,0-2.41.69,12.28,12.28,0,0,0-3,2.11,26,26,0,0,0-3.4,4,43.22,43.22,0,0,0-3.57,6.25l-1.77,3.71v-4.1c0-2.35,0-4.2-.06-5.52s-.07-2.24-.11-2.87a3,3,0,0,0-.05-.45A4.42,4.42,0,0,0,55.7,38.3Z"/><path class="cls-1" d="M79.8,53.33a3.62,3.62,0,0,1-2.31.15,3.1,3.1,0,0,1-1.58-1.13,6.67,6.67,0,0,1-1-2,9.16,9.16,0,0,1-.37-2.62,12.86,12.86,0,0,1,.37-2.94A12.2,12.2,0,0,1,76,41.85a8.61,8.61,0,0,1,1.89-2.39A7.39,7.39,0,0,1,80.53,38a6.33,6.33,0,0,1,1-.31,4.35,4.35,0,0,1,1.15,0c1,.1,1.64.17,1.76.2s.27-.23.43-.75a1.71,1.71,0,0,1,1.82-1.41,1.4,1.4,0,0,1,1.52.94,9.14,9.14,0,0,1,.37,2.47c0,1,.12,2.21.24,3.56a10.7,10.7,0,0,0,1.4,4.23,7.55,7.55,0,0,0,2.19,2.74,4.26,4.26,0,0,0,2.55,1,3.45,3.45,0,0,0,2.19-.9,17.7,17.7,0,0,0,2.07-2c.65-.73,1.19-1.41,1.64-2a5.35,5.35,0,0,1,.91-1.1,1.72,1.72,0,0,1,1.64-.39c.61.16.92.47.92.94a7.46,7.46,0,0,1-.73,1.37,15,15,0,0,1-2,2.55,15.94,15.94,0,0,1-3,2.42,7,7,0,0,1-3.83,1.1,6.66,6.66,0,0,1-4.38-1.41,11.17,11.17,0,0,1-2.67-3.13,16.43,16.43,0,0,1-1.83-4.55c-.08,0-.2.19-.36.55s-.37.84-.61,1.41a35.13,35.13,0,0,1-2.8,5.76A5.33,5.33,0,0,1,79.8,53.33Zm-2.19-5.49a9.13,9.13,0,0,0,.19,1.88,2.91,2.91,0,0,0,.67,1.41c.16.21.38.09.66-.35s.63-1,1-1.8.81-1.61,1.21-2.55.77-1.82,1.1-2.66.59-1.55.79-2.15a9.47,9.47,0,0,0,.3-1c.16-.58-.06-.92-.67-1a2.82,2.82,0,0,0-2.06.66A8.07,8.07,0,0,0,78.65,43,10,10,0,0,0,77.61,47.84Z"/><path class="cls-1" d="M78.33,54.59a3.6,3.6,0,0,1-1.15-.18,4.07,4.07,0,0,1-2.07-1.49A7.32,7.32,0,0,1,74,50.59a10.06,10.06,0,0,1-.41-2.9A14.23,14.23,0,0,1,74,44.52a13.47,13.47,0,0,1,1.19-3.13,9.54,9.54,0,0,1,2.1-2.66,8.22,8.22,0,0,1,3-1.69,6.3,6.3,0,0,1,1.15-.34,4.93,4.93,0,0,1,1.45,0L84,36.8a2.68,2.68,0,0,1,2.76-2.08,2.4,2.4,0,0,1,2.47,1.62,10.64,10.64,0,0,1,.41,2.73c0,1,.12,2.17.24,3.52a9.83,9.83,0,0,0,1.28,3.84,6.78,6.78,0,0,0,1.92,2.44c1.31,1,2.31,1.12,3.51.14a17.33,17.33,0,0,0,2-1.89,24.74,24.74,0,0,0,1.58-2,5.67,5.67,0,0,1,1.11-1.3,2.71,2.71,0,0,1,2.5-.57,1.92,1.92,0,0,1,1.66,1.89c0,.31-.08.55-.87,1.87a15.62,15.62,0,0,1-2.14,2.72,16.56,16.56,0,0,1-3.23,2.58,8.12,8.12,0,0,1-4.36,1.25,7.64,7.64,0,0,1-5-1.64,12.2,12.2,0,0,1-2.9-3.41,16,16,0,0,1-1.15-2.35,34,34,0,0,1-2.75,5.6,6.28,6.28,0,0,1-2.78,2.44h0A5.69,5.69,0,0,1,78.33,54.59Zm3.74-15.72a1.81,1.81,0,0,0-.32,0,5.47,5.47,0,0,0-.86.26,6.49,6.49,0,0,0-2.31,1.31,7.6,7.6,0,0,0-1.67,2.11A11.64,11.64,0,0,0,75.57,48a8,8,0,0,0,.32,2.35A5.86,5.86,0,0,0,76.71,52a2.13,2.13,0,0,0,1.09.78,2.68,2.68,0,0,0,1.66-.14A4.49,4.49,0,0,0,81.29,51,33.9,33.9,0,0,0,84,45.39L84.61,44c.18-.39.5-1.13,1.27-1.13h.78l.19.76a15.39,15.39,0,0,0,1.71,4.27A10.38,10.38,0,0,0,91,50.73a5.78,5.78,0,0,0,3.86,1.18,5.33,5.33,0,0,1-3-1.22,8.59,8.59,0,0,1-2.47-3.09A11.75,11.75,0,0,1,87.87,43c-.12-1.38-.2-2.59-.24-3.61a8.91,8.91,0,0,0-.32-2.21c0-.12-.08-.26-.58-.26a.74.74,0,0,0-.86.67c-.15.5-.53,1.7-1.6,1.46l-1-.11a1.65,1.65,0,0,1,1.24,2.12,11.06,11.06,0,0,1-.34,1.1c-.21.62-.48,1.35-.81,2.2s-.69,1.74-1.1,2.69-.85,1.86-1.25,2.62-.78,1.41-1.08,1.87a1.69,1.69,0,0,1-1.28.91,1.19,1.19,0,0,1-1-.48,3.82,3.82,0,0,1-.85-1.81,9.77,9.77,0,0,1-.21-2.08,10.93,10.93,0,0,1,1.16-5.37,8.87,8.87,0,0,1,2.48-3,4.16,4.16,0,0,1,2.19-.87A2.83,2.83,0,0,0,82.07,38.87Zm20.29,6.58a8.19,8.19,0,0,0-.65.84A24.88,24.88,0,0,1,100,48.41a18.63,18.63,0,0,1-2.17,2.1,4.76,4.76,0,0,1-2.1,1.06,6.29,6.29,0,0,0,2.33-.87,14.7,14.7,0,0,0,2.85-2.28,13.36,13.36,0,0,0,1.87-2.37c.25-.41.4-.67.49-.84l-.07,0a.71.71,0,0,0-.74.18l-.11.08Zm-23.17,5,0,0Zm3.37-9.87a2.12,2.12,0,0,0-1.14.49,7.06,7.06,0,0,0-1.9,2.34,9,9,0,0,0-.91,4.42,8.25,8.25,0,0,0,.15,1.64c.16-.28.34-.6.53-1,.39-.72.78-1.55,1.18-2.47s.76-1.81,1.08-2.63.58-1.53.78-2.12C82.44,41,82.52,40.74,82.56,40.59Zm20.85,4.34ZM83.82,37.21Zm.82-.32h0Z"/><path class="cls-1" d="M109.71,64a5.41,5.41,0,0,0,4.38,1.49,9,9,0,0,0,3.53-1.18,17.85,17.85,0,0,0,3.46-2.54,35.17,35.17,0,0,0,3.16-3.37,27.79,27.79,0,0,0,2.62-3.72,47.47,47.47,0,0,0,2.86-5.17c.6-1.36,1.09-2.43,1.46-3.21a7.32,7.32,0,0,1,.91-1.61,1.34,1.34,0,0,1,1.09-.43c1,0,1.46.34,1.46,1a8.93,8.93,0,0,1-.73,2.15c-.48,1.18-1.15,2.57-2,4.19a59,59,0,0,1-3.11,5.17,32.94,32.94,0,0,1-4.13,5.06,24,24,0,0,1-5,3.87A11.77,11.77,0,0,1,114,67.35a12.59,12.59,0,0,1-4.62-.86,9.23,9.23,0,0,1-3.41-2.43,13.53,13.53,0,0,1-2.37-3.92,28.94,28.94,0,0,1-1.46-5.09,40,40,0,0,1-.66-6,68,68,0,0,1,.24-9.91,94.27,94.27,0,0,1,1.52-10.26q1-5.05,2.43-9.64a65.33,65.33,0,0,1,3-8,22.48,22.48,0,0,1,2.86-5,6.07,6.07,0,0,1,3-2.31,4,4,0,0,1,3.52.15A3.59,3.59,0,0,1,119.56,7a18.82,18.82,0,0,1-.24,5.06,52.71,52.71,0,0,1-1.52,6.42q-1,3.48-2.49,7.05t-3,6.93q-1.59,3.38-3,6.07A49.51,49.51,0,0,1,106.55,43a7.33,7.33,0,0,1-1.94,2.15c-.17.11-.27.93-.31,2.47a27.22,27.22,0,0,0,.49,5.36,34.88,34.88,0,0,0,1.7,6.15A11.76,11.76,0,0,0,109.71,64ZM116.16,6.8c-.33-.94-.73-1.34-1.22-1.18-.65.21-1.4,1.24-2.25,3.1a62.82,62.82,0,0,0-2.55,6.69q-1.27,3.91-2.43,8.42t-2,8.23q-.86,3.72-1.15,6.07t.18,2a14.09,14.09,0,0,0,1.58-2.43c.81-1.41,1.7-3.14,2.67-5.17s2-4.3,3-6.78a73.86,73.86,0,0,0,2.68-7.28,47.49,47.49,0,0,0,1.58-6.7A11.29,11.29,0,0,0,116.16,6.8Z"/><path class="cls-1" d="M114,68.3a13.76,13.76,0,0,1-5-.93,10.13,10.13,0,0,1-3.78-2.7,14.42,14.42,0,0,1-2.55-4.2,29.29,29.29,0,0,1-1.51-5.27,40.43,40.43,0,0,1-.68-6.18,69.79,69.79,0,0,1,.24-10,96.68,96.68,0,0,1,1.54-10.37c.69-3.38,1.51-6.65,2.45-9.72a65.62,65.62,0,0,1,3-8.15,23.2,23.2,0,0,1,3-5.18,7,7,0,0,1,3.5-2.65,4.94,4.94,0,0,1,4.32.28,4.49,4.49,0,0,1,2,3.61,19.92,19.92,0,0,1-.25,5.32,54.28,54.28,0,0,1-1.55,6.54c-.7,2.35-1.55,4.76-2.52,7.14s-2,4.71-3.06,7-2.1,4.32-3.07,6.12a50.66,50.66,0,0,1-2.73,4.56,9.86,9.86,0,0,1-2,2.25,14.13,14.13,0,0,0-.13,1.84,25.5,25.5,0,0,0,.48,5.17,34.43,34.43,0,0,0,1.65,6,10.85,10.85,0,0,0,3,4.5l0,0a4.39,4.39,0,0,0,3.6,1.22,8.1,8.1,0,0,0,3.13-1A17.09,17.09,0,0,0,120.4,61a34.6,34.6,0,0,0,3.08-3.27A27.61,27.61,0,0,0,126,54.14a45.33,45.33,0,0,0,2.81-5.08c.61-1.36,1.1-2.44,1.47-3.23A8.26,8.26,0,0,1,131.33,44a2.3,2.3,0,0,1,1.85-.78c1.81,0,2.45,1,2.45,2a7.37,7.37,0,0,1-.8,2.52c-.5,1.2-1.18,2.63-2.05,4.27a59.71,59.71,0,0,1-3.15,5.26,33.73,33.73,0,0,1-4.25,5.2,25,25,0,0,1-5.26,4A13,13,0,0,1,114,68.3Zm19.19-23.08c-.08,0-.27,0-.33.08a6.09,6.09,0,0,0-.77,1.39c-.37.78-.85,1.84-1.46,3.19a44.77,44.77,0,0,1-2.92,5.29A27.91,27.91,0,0,1,125,59a36,36,0,0,1-3.25,3.46,18.85,18.85,0,0,1-3.65,2.69,11.44,11.44,0,0,1-2.56,1,11.53,11.53,0,0,0,3.58-1.35A23.35,23.35,0,0,0,124,61.14a32.68,32.68,0,0,0,4-4.91,58.27,58.27,0,0,0,3-5.08c.83-1.59,1.49-3,2-4.11a11.86,11.86,0,0,0,.65-1.77A1.67,1.67,0,0,0,133.18,45.22ZM113.36,5.64a8.39,8.39,0,0,0-1.1,1.17,21.6,21.6,0,0,0-2.73,4.76,63.75,63.75,0,0,0-2.94,7.92c-.92,3-1.73,6.23-2.41,9.55a92.79,92.79,0,0,0-1.5,10.16,67.56,67.56,0,0,0-.24,9.77,39,39,0,0,0,.65,5.89,26.49,26.49,0,0,0,1.41,4.92,12.33,12.33,0,0,0,2.19,3.63,8.09,8.09,0,0,0,3,2.17A10,10,0,0,0,111,66a6.63,6.63,0,0,1-2-1.3,12.81,12.81,0,0,1-3.48-5.28,37.51,37.51,0,0,1-1.75-6.32,28.49,28.49,0,0,1-.5-5.56c.06-2.41.25-2.93.76-3.26a6,6,0,0,0,1.66-1.89A45.18,45.18,0,0,0,108.35,38c1-1.77,2-3.79,3-6s2.07-4.56,3-6.89,1.78-4.67,2.46-7a52.59,52.59,0,0,0,1.49-6.3,17.71,17.71,0,0,0,.24-4.79,2.68,2.68,0,0,0-1.1-2.16,2.65,2.65,0,0,0-2-.26c.53.12,1.17.56,1.61,1.84v0a11.92,11.92,0,0,1,.16,5.46,48.68,48.68,0,0,1-1.61,6.83c-.74,2.39-1.65,4.87-2.71,7.38s-2.1,4.8-3.06,6.82-1.88,3.79-2.71,5.23a11.4,11.4,0,0,1-1.79,2.69l-.11.08A1.14,1.14,0,0,1,104,41c-.68-.43-.7-1.31-.48-3s.6-3.65,1.18-6.16,1.24-5.26,2-8.25,1.59-5.86,2.45-8.48a65.82,65.82,0,0,1,2.59-6.8A11.71,11.71,0,0,1,113.36,5.64Zm-7.91,39.93Zm9.6-38.87a8.51,8.51,0,0,0-1.45,2.42,63.87,63.87,0,0,0-2.52,6.59c-.84,2.59-1.65,5.4-2.41,8.36s-1.44,5.73-2,8.2c-.39,1.69-.69,3.17-.9,4.42.71-1.29,1.49-2.81,2.32-4.54,1-2,2-4.26,3-6.74a72,72,0,0,0,2.64-7.19,47.69,47.69,0,0,0,1.55-6.56,10.38,10.38,0,0,0-.08-4.56A2.37,2.37,0,0,0,115.05,6.7Z"/><path class="cls-1" d="M136.83,53.33a3.62,3.62,0,0,1-2.31.15,3.06,3.06,0,0,1-1.58-1.13,6.45,6.45,0,0,1-1-2,8.83,8.83,0,0,1-.37-2.62,12.33,12.33,0,0,1,.37-2.94,11.78,11.78,0,0,1,1.09-2.9A8.43,8.43,0,0,1,135,39.46,7.3,7.3,0,0,1,137.56,38a6.25,6.25,0,0,1,1-.31,4.43,4.43,0,0,1,1.16,0c1.05.1,1.64.17,1.76.2s.26-.23.43-.75a1.71,1.71,0,0,1,1.82-1.41,1.4,1.4,0,0,1,1.52.94,10,10,0,0,1,.37,2.47c0,1,.12,2.21.24,3.56a10.7,10.7,0,0,0,1.4,4.23,7.35,7.35,0,0,0,2.19,2.74,4.26,4.26,0,0,0,2.55,1,3.45,3.45,0,0,0,2.19-.9,17.62,17.62,0,0,0,2.06-2c.65-.73,1.2-1.41,1.65-2a5,5,0,0,1,.91-1.1,1.71,1.71,0,0,1,1.64-.39c.61.16.91.47.91.94a6.78,6.78,0,0,1-.73,1.37,14.46,14.46,0,0,1-2,2.55,16.26,16.26,0,0,1-3,2.42,7.07,7.07,0,0,1-3.83,1.1,6.62,6.62,0,0,1-4.38-1.41,11.21,11.21,0,0,1-2.68-3.13,16.11,16.11,0,0,1-1.82-4.55c-.08,0-.2.19-.37.55l-.6,1.41a35.13,35.13,0,0,1-2.8,5.76A5.33,5.33,0,0,1,136.83,53.33Zm-2.19-5.49a9.16,9.16,0,0,0,.18,1.88,3.09,3.09,0,0,0,.67,1.41c.16.21.39.09.67-.35s.63-1,1-1.8.81-1.61,1.22-2.55.77-1.82,1.1-2.66.58-1.55.79-2.15a9.47,9.47,0,0,0,.3-1c.16-.58-.06-.92-.67-1a2.83,2.83,0,0,0-2.07.66A8.07,8.07,0,0,0,135.67,43,10.06,10.06,0,0,0,134.64,47.84Z"/><path class="cls-1" d="M135.35,54.59a3.58,3.58,0,0,1-1.14-.18,4.07,4.07,0,0,1-2.07-1.49A7.32,7.32,0,0,1,131,50.59a10.06,10.06,0,0,1-.41-2.9,13.67,13.67,0,0,1,.39-3.17,13.44,13.44,0,0,1,1.18-3.13,9.58,9.58,0,0,1,2.11-2.66,8.18,8.18,0,0,1,3-1.69,6.38,6.38,0,0,1,1.16-.34,4.86,4.86,0,0,1,1.44,0l1.14.11a2.7,2.7,0,0,1,2.77-2.08,2.38,2.38,0,0,1,2.46,1.62,10.18,10.18,0,0,1,.42,2.73c0,1,.12,2.18.24,3.52a9.83,9.83,0,0,0,1.28,3.84,6.57,6.57,0,0,0,1.92,2.44c1.3,1,2.31,1.12,3.5.14a18.3,18.3,0,0,0,2-1.89,24.74,24.74,0,0,0,1.58-2,5.42,5.42,0,0,1,1.11-1.3,2.71,2.71,0,0,1,2.5-.57,1.92,1.92,0,0,1,1.65,1.89c0,.31-.07.55-.87,1.87a16,16,0,0,1-2.13,2.72,16.64,16.64,0,0,1-3.24,2.58,8.09,8.09,0,0,1-4.35,1.25,7.62,7.62,0,0,1-5-1.64,12.2,12.2,0,0,1-2.9-3.41,16,16,0,0,1-1.16-2.35A33.18,33.18,0,0,1,140,51.8a6.26,6.26,0,0,1-2.77,2.44h0A5.59,5.59,0,0,1,135.35,54.59Zm3.74-15.72-.32,0a5.4,5.4,0,0,0-.85.26,6.63,6.63,0,0,0-2.32,1.31,7.65,7.65,0,0,0-1.66,2.12,10.82,10.82,0,0,0-1,2.66,12,12,0,0,0-.34,2.71,7.94,7.94,0,0,0,.33,2.35,5.63,5.63,0,0,0,.82,1.74,2.11,2.11,0,0,0,1.08.78,2.68,2.68,0,0,0,1.66-.14A4.5,4.5,0,0,0,138.32,51a34.75,34.75,0,0,0,2.7-5.58c.25-.59.45-1.06.62-1.44s.5-1.13,1.27-1.13h.78l.18.76a15.41,15.41,0,0,0,1.72,4.27A10.33,10.33,0,0,0,148,50.73a5.78,5.78,0,0,0,3.86,1.18,5.3,5.3,0,0,1-3-1.22,8.59,8.59,0,0,1-2.47-3.09A11.59,11.59,0,0,1,144.9,43c-.12-1.37-.21-2.59-.25-3.61a8.52,8.52,0,0,0-.31-2.21c0-.12-.09-.26-.58-.26a.74.74,0,0,0-.86.67c-.16.5-.53,1.7-1.6,1.46l-1-.11a1.81,1.81,0,0,1,1.07.73,1.73,1.73,0,0,1,.17,1.39,7.77,7.77,0,0,1-.33,1.1c-.21.62-.48,1.35-.81,2.2s-.7,1.74-1.11,2.69-.84,1.86-1.25,2.62-.78,1.41-1.07,1.87a1.71,1.71,0,0,1-1.28.91,1.21,1.21,0,0,1-1-.48,4,4,0,0,1-.85-1.81,10.49,10.49,0,0,1-.2-2.08,10.93,10.93,0,0,1,1.16-5.37,9,9,0,0,1,2.47-3,4.27,4.27,0,0,1,2.19-.87A2.76,2.76,0,0,0,139.09,38.87Zm20.29,6.58s-.16.17-.64.84A24.88,24.88,0,0,1,157,48.41a20.58,20.58,0,0,1-2.18,2.11,4.86,4.86,0,0,1-2.09,1,6.35,6.35,0,0,0,2.33-.87,14.7,14.7,0,0,0,2.85-2.28,14.36,14.36,0,0,0,1.87-2.37c.25-.41.4-.67.49-.84l-.07,0a.71.71,0,0,0-.74.18l-.11.08Zm-23.17,5,0,0Zm3.38-9.87a2.15,2.15,0,0,0-1.15.49,7.19,7.19,0,0,0-1.9,2.34,9.15,9.15,0,0,0-.91,4.42,7.54,7.54,0,0,0,.16,1.64c.16-.28.34-.6.53-1,.38-.72.78-1.55,1.18-2.47s.76-1.81,1.08-2.63.58-1.53.78-2.12C139.47,41,139.54,40.74,139.59,40.59Zm20.85,4.34Zm-19.59-7.72Zm.82-.32h0Z"/><path class="cls-1" d="M189.45,47.47c-.09-.46-.15-.92-.24-1.38a6.89,6.89,0,0,1-.1-1.41,8.1,8.1,0,0,0-.91,1.6c-.36.78-.85,1.85-1.46,3.21a45.47,45.47,0,0,1-2.85,5.17,28.73,28.73,0,0,1-2.62,3.72,36.48,36.48,0,0,1-3.16,3.37,17.85,17.85,0,0,1-3.46,2.54,9.09,9.09,0,0,1-3.53,1.18A5.41,5.41,0,0,1,166.74,64a11.76,11.76,0,0,1-3.22-4.9,34.88,34.88,0,0,1-1.7-6.15,26.48,26.48,0,0,1-.49-5.36,5.89,5.89,0,0,1,.3-2.47,7.18,7.18,0,0,0,2-2.15,52,52,0,0,0,2.68-4.47q1.45-2.7,3-6.07t3-6.93a73.67,73.67,0,0,0,2.5-7A54.65,54.65,0,0,0,176.35,12,18.82,18.82,0,0,0,176.59,7,3.59,3.59,0,0,0,175,4.05a4.07,4.07,0,0,0-3.53-.15,6.15,6.15,0,0,0-3,2.31,22.88,22.88,0,0,0-2.85,5,63.74,63.74,0,0,0-3,8c-.93,3.06-1.75,6.27-2.43,9.64a94.27,94.27,0,0,0-1.52,10.26,68.07,68.07,0,0,0-.25,9.91,40,40,0,0,0,.67,6,28.11,28.11,0,0,0,1.46,5.09A13.53,13.53,0,0,0,163,64.06a9.15,9.15,0,0,0,3.41,2.43,12.56,12.56,0,0,0,4.62.86,11.8,11.8,0,0,0,5.65-1.65,24,24,0,0,0,5-3.87,32.94,32.94,0,0,0,4.13-5.06,56.4,56.4,0,0,0,3.1-5.17c.49-.93.91-1.78,1.28-2.56A3.94,3.94,0,0,1,189.45,47.47Zm-27.88-9.34q.3-2.35,1.16-6.07c.57-2.48,1.23-5.22,2-8.23s1.59-5.81,2.44-8.42a62.82,62.82,0,0,1,2.55-6.69c.85-1.86,1.6-2.89,2.25-3.1.49-.16.89.24,1.22,1.18a11.29,11.29,0,0,1,.12,5,48.92,48.92,0,0,1-1.58,6.7,76.5,76.5,0,0,1-2.68,7.28c-1.05,2.48-2.07,4.74-3,6.78s-1.86,3.76-2.67,5.17a14.09,14.09,0,0,1-1.58,2.43C161.43,40.38,161.37,39.7,161.57,38.13Z"/><path class="cls-1" d="M171,68.3a13.76,13.76,0,0,1-5-.93,10.13,10.13,0,0,1-3.78-2.7,14.21,14.21,0,0,1-2.55-4.2,28.72,28.72,0,0,1-1.51-5.27,41.69,41.69,0,0,1-.69-6.18,69.85,69.85,0,0,1,.25-10,96.66,96.66,0,0,1,1.53-10.37c.69-3.38,1.52-6.65,2.46-9.72a65.69,65.69,0,0,1,3-8.15,24,24,0,0,1,3-5.18,7,7,0,0,1,3.5-2.65,5,5,0,0,1,4.33.28,4.52,4.52,0,0,1,2,3.61,19.92,19.92,0,0,1-.25,5.32,54.28,54.28,0,0,1-1.55,6.54c-.7,2.35-1.55,4.75-2.53,7.14s-2,4.71-3.06,7-2.09,4.32-3.06,6.12a50.66,50.66,0,0,1-2.73,4.56,9.85,9.85,0,0,1-2,2.25,15.11,15.11,0,0,0-.12,1.84,26.15,26.15,0,0,0,.47,5.17,34.47,34.47,0,0,0,1.66,6,10.85,10.85,0,0,0,3,4.5A4.4,4.4,0,0,0,171,64.46a8.1,8.1,0,0,0,3.13-1A17.09,17.09,0,0,0,177.43,61a33.29,33.29,0,0,0,3.07-3.27A26.77,26.77,0,0,0,183,54.14a48.84,48.84,0,0,0,2.81-5.08c.61-1.36,1.1-2.44,1.46-3.23a8.38,8.38,0,0,1,1-1.81l1.83-2.18-.08,2.83a5.84,5.84,0,0,0,.09,1.21l.12.71c0,.22.07.45.11.67h0a2.83,2.83,0,0,0,.58,1.15l.36.47-.25.54c-.37.8-.8,1.66-1.3,2.6a58.29,58.29,0,0,1-3.15,5.26,33.8,33.8,0,0,1-4.26,5.2,24.69,24.69,0,0,1-5.25,4A13,13,0,0,1,171,68.3Zm17.51-20.38c-.25.57-.55,1.22-.88,2a45.46,45.46,0,0,1-2.92,5.29A29.77,29.77,0,0,1,182,59a37.28,37.28,0,0,1-3.25,3.46,19.22,19.22,0,0,1-3.66,2.69,11.37,11.37,0,0,1-2.55,1,11.39,11.39,0,0,0,3.57-1.35A22.84,22.84,0,0,0,181,61.14a31.6,31.6,0,0,0,4-4.91,58.27,58.27,0,0,0,3.05-5.08c.38-.72.72-1.39,1-2A4.79,4.79,0,0,1,188.53,47.92ZM170.39,5.64a9.05,9.05,0,0,0-1.11,1.17,22,22,0,0,0-2.72,4.76,63.75,63.75,0,0,0-2.94,7.92c-.92,3-1.73,6.23-2.41,9.55A95.29,95.29,0,0,0,159.7,39.2a69,69,0,0,0-.24,9.77,37.72,37.72,0,0,0,.66,5.89,27.29,27.29,0,0,0,1.4,4.92,12.35,12.35,0,0,0,2.2,3.63,7.94,7.94,0,0,0,3,2.17,10.35,10.35,0,0,0,1.3.42,6.67,6.67,0,0,1-2-1.31,12.75,12.75,0,0,1-3.47-5.27,35.72,35.72,0,0,1-1.75-6.32,27.74,27.74,0,0,1-.5-5.56c.06-2.41.24-2.93.75-3.26a5.91,5.91,0,0,0,1.67-1.89A48.69,48.69,0,0,0,165.38,38c1-1.77,2-3.79,3-6s2.06-4.56,3-6.89,1.78-4.67,2.46-7a54.59,54.59,0,0,0,1.49-6.3,17.71,17.71,0,0,0,.24-4.79A2.66,2.66,0,0,0,174.5,4.9a2.63,2.63,0,0,0-2-.26c.54.12,1.17.56,1.61,1.84a11.87,11.87,0,0,1,.17,5.48,50.13,50.13,0,0,1-1.61,6.83A78.51,78.51,0,0,1,170,26.17c-1.07,2.51-2.1,4.8-3.06,6.82s-1.88,3.79-2.71,5.23a11.4,11.4,0,0,1-1.79,2.69l-.11.08a1.14,1.14,0,0,1-1.23,0c-.69-.43-.7-1.31-.48-3h0c.2-1.59.6-3.66,1.17-6.17s1.25-5.26,2-8.25,1.6-5.86,2.45-8.48a65.66,65.66,0,0,1,2.6-6.8A11.71,11.71,0,0,1,170.39,5.64Zm-7.91,39.93Zm9.6-38.87a8.68,8.68,0,0,0-1.46,2.42,64,64,0,0,0-2.51,6.59c-.84,2.58-1.65,5.4-2.41,8.36s-1.44,5.73-2,8.2c-.39,1.69-.69,3.16-.91,4.42.72-1.29,1.5-2.81,2.33-4.54.95-2,2-4.26,3-6.74a74.52,74.52,0,0,0,2.64-7.19,47.69,47.69,0,0,0,1.55-6.56,10.25,10.25,0,0,0-.09-4.57A2.76,2.76,0,0,0,172.08,6.7Z"/><path class="cls-1" d="M192.86,51.37a3.62,3.62,0,0,1-2.31.15A3.1,3.1,0,0,1,189,50.39a6.67,6.67,0,0,1-1-2,9.17,9.17,0,0,1-.36-2.62,12.83,12.83,0,0,1,.36-2.94,11.81,11.81,0,0,1,1.1-2.9A8.4,8.4,0,0,1,191,37.5,7.39,7.39,0,0,1,193.59,36a6.33,6.33,0,0,1,1-.31,4.35,4.35,0,0,1,1.15,0c1.06.1,1.64.17,1.77.2s.26-.23.42-.75a1.71,1.71,0,0,1,1.83-1.41,1.4,1.4,0,0,1,1.52.94,9.6,9.6,0,0,1,.36,2.47c0,1,.12,2.21.24,3.56a10.86,10.86,0,0,0,1.4,4.23,7.55,7.55,0,0,0,2.19,2.74,4.26,4.26,0,0,0,2.55,1,3.45,3.45,0,0,0,2.19-.9,17.7,17.7,0,0,0,2.07-2c.65-.73,1.19-1.41,1.64-2a5.72,5.72,0,0,1,.91-1.1,1.72,1.72,0,0,1,1.64-.39c.61.16.92.47.92.94a7.46,7.46,0,0,1-.73,1.37,15,15,0,0,1-2,2.55,15.63,15.63,0,0,1-3,2.42,7,7,0,0,1-3.83,1.1,6.66,6.66,0,0,1-4.38-1.41,11.34,11.34,0,0,1-2.67-3.13,16.43,16.43,0,0,1-1.83-4.55c-.08,0-.2.19-.36.55s-.37.84-.61,1.41a35.3,35.3,0,0,1-2.79,5.76A5.35,5.35,0,0,1,192.86,51.37Zm-2.18-5.49a9.16,9.16,0,0,0,.18,1.88,2.91,2.91,0,0,0,.67,1.41c.16.21.38.09.67-.35s.62-1,1-1.8.81-1.61,1.22-2.55.77-1.82,1.09-2.66.59-1.55.79-2.15a9.47,9.47,0,0,0,.3-1c.17-.58-.06-.92-.66-1a2.83,2.83,0,0,0-2.07.66A8.07,8.07,0,0,0,191.71,41,10,10,0,0,0,190.68,45.88Z"/><path class="cls-1" d="M191.39,52.63a3.49,3.49,0,0,1-1.14-.18A4.06,4.06,0,0,1,188.17,51a7.54,7.54,0,0,1-1.12-2.33,10.06,10.06,0,0,1-.41-2.9,13.69,13.69,0,0,1,.4-3.17,13.44,13.44,0,0,1,1.18-3.13,9.54,9.54,0,0,1,2.1-2.66,8.37,8.37,0,0,1,3-1.69,6.16,6.16,0,0,1,1.16-.34,4.86,4.86,0,0,1,1.44,0l1.14.11a2.69,2.69,0,0,1,2.77-2.08,2.38,2.38,0,0,1,2.46,1.62,10.22,10.22,0,0,1,.41,2.73c0,1,.12,2.17.24,3.52a9.83,9.83,0,0,0,1.28,3.84,6.78,6.78,0,0,0,1.92,2.44c1.31,1,2.32,1.12,3.51.14a18.3,18.3,0,0,0,2-1.89c.61-.7,1.14-1.36,1.57-2a5.36,5.36,0,0,1,1.12-1.3,2.71,2.71,0,0,1,2.5-.57,1.92,1.92,0,0,1,1.65,1.89c0,.31-.08.55-.87,1.87a15.62,15.62,0,0,1-2.14,2.72,16.56,16.56,0,0,1-3.23,2.58,8.12,8.12,0,0,1-4.36,1.25,7.61,7.61,0,0,1-5-1.64,12.41,12.41,0,0,1-2.91-3.41,16,16,0,0,1-1.15-2.35,34.4,34.4,0,0,1-2.75,5.6,6.26,6.26,0,0,1-2.77,2.44h0A5.64,5.64,0,0,1,191.39,52.63Zm3.74-15.72a2,2,0,0,0-.32,0,5.1,5.1,0,0,0-.85.26,6.45,6.45,0,0,0-2.32,1.31A7.5,7.5,0,0,0,190,40.62a11.21,11.21,0,0,0-1,2.66,11.44,11.44,0,0,0-.34,2.72,8.27,8.27,0,0,0,.32,2.34,5.75,5.75,0,0,0,.82,1.74,2.13,2.13,0,0,0,1.09.78,2.68,2.68,0,0,0,1.66-.14A4.36,4.36,0,0,0,194.35,49a33.09,33.09,0,0,0,2.7-5.58c.25-.59.46-1.06.62-1.43s.51-1.14,1.27-1.14h.79l.18.76a15.39,15.39,0,0,0,1.71,4.27,10.38,10.38,0,0,0,2.46,2.88A5.78,5.78,0,0,0,207.94,50a5.3,5.3,0,0,1-3-1.22,8.61,8.61,0,0,1-2.48-3.09,11.57,11.57,0,0,1-1.49-4.57c-.13-1.38-.21-2.59-.25-3.61a8.91,8.91,0,0,0-.32-2.21c0-.12-.08-.26-.57-.26a.74.74,0,0,0-.87.67c-.15.5-.53,1.7-1.6,1.46l-1-.11a1.65,1.65,0,0,1,1.24,2.11,10.82,10.82,0,0,1-.34,1.11c-.21.62-.48,1.35-.8,2.2s-.7,1.74-1.11,2.7-.84,1.85-1.25,2.62-.78,1.4-1.08,1.86a1.69,1.69,0,0,1-1.28.91,1.23,1.23,0,0,1-1-.48,3.92,3.92,0,0,1-.85-1.81,9.77,9.77,0,0,1-.21-2.08,11,11,0,0,1,1.16-5.37,8.87,8.87,0,0,1,2.48-3,4.24,4.24,0,0,1,2.19-.87A2.76,2.76,0,0,0,195.13,36.91Zm20.29,6.58a8.19,8.19,0,0,0-.65.84,24.63,24.63,0,0,1-1.7,2.12,19.53,19.53,0,0,1-2.18,2.1,4.78,4.78,0,0,1-2.09,1.06,6.31,6.31,0,0,0,2.32-.87A14.77,14.77,0,0,0,214,46.46a13.36,13.36,0,0,0,1.87-2.37c.25-.41.4-.67.49-.84l-.06,0a.73.73,0,0,0-.75.18l-.1.08Zm-23.17,5,0,0Zm3.38-9.87a2.2,2.2,0,0,0-1.15.49,7.06,7.06,0,0,0-1.9,2.34,9,9,0,0,0-.91,4.42,8.25,8.25,0,0,0,.15,1.64c.16-.28.34-.6.53-1,.39-.72.79-1.55,1.18-2.47s.76-1.81,1.08-2.63.58-1.52.78-2.12ZM216.47,43Zm-19.59-7.72Zm.82-.32h0Z"/><path class="cls-1" d="M266.76,5.59h-33.5a.61.61,0,0,0-.47.21.57.57,0,0,0,.17.88l7.81,4.15h0l1.82,12a.6.6,0,0,0,.92.39l7.63-5.36h0L257,21s0,0,0,0l6-8.48a.57.57,0,0,0-.14-.8.59.59,0,0,0-.81.15l-5.39,7.65h0l-10.79-5.87h0l19.42-6.39h0l-1.61,2.29a.58.58,0,1,0,.94.68l2.63-3.74.05-.08A.58.58,0,0,0,266.76,5.59ZM250,17.21h0l-6.07,4.26h0l1-7h0ZM259.32,8l-15.09,5a.59.59,0,0,0-.4.47l-.69,5.16h0L242,10.92h0L259.32,8Zm-.16-1.42L241.77,9.51h0l-5.51-2.93h22.9Z"/><path class="cls-1" d="M243.18,23.8a.78.78,0,0,1-.33-.07.79.79,0,0,1-.5-.62l-1.8-11.87-7.71-4.1a.84.84,0,0,1-.42-.58.78.78,0,0,1,.18-.67.86.86,0,0,1,.66-.3h33.5a.84.84,0,0,1,.71.4.8.8,0,0,1,0,.79l-.06.1-2.63,3.74a.87.87,0,0,1-.55.34.83.83,0,0,1-.63-.15.82.82,0,0,1-.17-1.15L264.66,8l-18.19,6,10.11,5.49L261.84,12a.82.82,0,0,1,1.15-.2.81.81,0,0,1,.21,1.14L257.51,21a.84.84,0,0,1-1.08.25l-5.28-2.87-7.5,5.27A.8.8,0,0,1,243.18,23.8ZM233.26,5.59a.38.38,0,0,0-.28.12.32.32,0,0,0-.07.27.35.35,0,0,0,.17.24l7.93,4.3,1.83,12a.32.32,0,0,0,.2.25.31.31,0,0,0,.32,0l7.81-5.48.12.12,5.38,2.93a.34.34,0,0,0,.44-.1l5.68-8.08a.32.32,0,0,0-.08-.46.37.37,0,0,0-.25-.06.37.37,0,0,0-.22.14l-5.49,7.8-.18-.05-11-6,0-.31.14-.06,19.61-6.46.22.32-.14.15-1.59,2.25a.35.35,0,0,0,.07.48.36.36,0,0,0,.25.06.37.37,0,0,0,.22-.14L267,6.11a.34.34,0,0,0,0-.36.35.35,0,0,0-.29-.16Zm10.79,16.19-.26-.16v-.14l1-7.22.23-.1.11.05,5.26,2.87v.25l-.11.08Zm1-7L244.24,21l5.3-3.72Zm-1.93,3.52h-.24l-1.2-7.84h.63l16.84-2.85.09.44-.21.06-14.47,4.77a.33.33,0,0,0-.23.27l-.69,5.15Zm-.89-7.21.87,5.75.47-3.46a.82.82,0,0,1,.56-.67l12.06-4Zm-.93-1-.06-.06-6-3.19.1-1.27.2,1h24.53l0,.37-.23,0Zm-4.79-3.54,4.92,2.63L257,6.57Z"/><path class="cls-1" d="M243.18,23.8a1,1,0,0,1-.33-.06.82.82,0,0,1-.5-.63l-1.8-11.87-7.71-4.1a.84.84,0,0,1-.42-.57.8.8,0,0,1,.18-.68.86.86,0,0,1,.66-.3h33.5a.84.84,0,0,1,.71.4.8.8,0,0,1,0,.79l-.06.1-2.63,3.74a.87.87,0,0,1-.55.34.84.84,0,0,1-.63-.15.82.82,0,0,1-.17-1.15L264.66,8l-18.19,6,10.11,5.5L261.84,12a.83.83,0,0,1,1.15-.2.8.8,0,0,1,.34.53.83.83,0,0,1-.13.61L257.51,21a.84.84,0,0,1-1.08.25l-5.28-2.87-7.5,5.27A.8.8,0,0,1,243.18,23.8ZM232.44,5.59a.39.39,0,0,0-.29.12.27.27,0,0,0-.08.27.3.3,0,0,0,.18.23l8.57,4.23v.15l2,12a.33.33,0,0,0,.22.25.34.34,0,0,0,.34,0l8.37-5.44.14.06,5.88,3a.37.37,0,0,0,.42-.1l6.15-8.1a.36.36,0,0,0,.06-.25.35.35,0,0,0-.15-.21.43.43,0,0,0-.27-.06.42.42,0,0,0-.24.14l-5.95,7.85-.23-.13-11.75-5.92v-.32l.17-.06,21.13-6.45.24.26-.1.15-1.74,2.3a.34.34,0,0,0,.06.48.43.43,0,0,0,.27.06.39.39,0,0,0,.24-.14l2.84-3.74a.34.34,0,0,0,0-.36.38.38,0,0,0-.31-.16ZM244.07,22l-.28-.15v-.15l1-7.62.25-.12.12.06,5.55,3v.32l-.14.08Zm1-7.17L244.24,21l5.3-3.72Zm-1.93,4.5-.22-1,0,.3-1.2-7.87.2-.07,17.61-3,.13.45-.23.07-15.09,5a.35.35,0,0,0-.23.27l-.72,5.84Zm-.89-8.19.87,5.76.47-3.47a.82.82,0,0,1,.56-.67l12.06-4Zm-.93-1-.06-.06-6-3.19.1-1.27.2,1h24.53l0,.37-.23,0Zm-4.79-3.54,4.92,2.63L257,6.57Z"/><path class="cls-1" d="M243.18,23.31a1.26,1.26,0,0,1-.43-.08,1.09,1.09,0,0,1-.65-.82l-1.78-11.75-7.6-4A1.07,1.07,0,0,1,232.41,5a1.11,1.11,0,0,1,.85-.38h33.5a1.09,1.09,0,0,1,.92.51,1,1,0,0,1,.05,1,1,1,0,0,1-.08.14L265,10a1.07,1.07,0,1,1-1.76-1.23L264,7.7l-16.94,5.58,9.41,5.12,5.13-7.29a1.09,1.09,0,0,1,1.5-.27,1,1,0,0,1,.45.69,1,1,0,0,1-.18.79l-5.69,8.08a1.09,1.09,0,0,1-1.4.33l-5.14-2.8-7.38,5.19A1.1,1.1,0,0,1,243.18,23.31Zm-.44-.21a.8.8,0,0,0,.21.15.63.63,0,0,0,.55-.05.63.63,0,0,1-.55.05A.8.8,0,0,1,242.74,23.1ZM234.07,5.59a.13.13,0,0,0-.09,0,.2.2,0,0,0,0,.07.09.09,0,0,0,0,.06l7.81,4.3v.29l1.75,11.92a.09.09,0,0,0,.06.06s0,0,.08,0l7.61-5.53.26.13,5.24,2.95.11,0,5.5-8.08a.13.13,0,0,0,0-.06s0,0,0-.06h-.07a.1.1,0,0,0-.05,0l-5.47,8-.4-.26-10.64-6v-.62l.3-.13,19.1-6.51.44.51-.18.31-1.57,2.32a.11.11,0,0,0,0,.14h.07a.07.07,0,0,0,.05,0l2.54-3.73c0-.05,0-.08,0-.09a.08.08,0,0,0-.07,0Zm19.68,13.66,2.8,1.52a.4.4,0,0,0,.28.07h0a.55.55,0,0,1-.28-.07Zm2.89.25h0Zm6.45-7.41a.62.62,0,0,1,0,.36A.62.62,0,0,0,263.09,12.09Zm-.22-.36a.58.58,0,0,1,.16.19A.58.58,0,0,0,262.87,11.73ZM233.08,5.6a.55.55,0,0,0-.29.18.59.59,0,0,0-.13.48.61.61,0,0,0,.3.4l7.82,4.17h0L233,6.66a.61.61,0,0,1-.3-.4.59.59,0,0,1,.13-.48A.55.55,0,0,1,233.08,5.6Zm30.73,4.77a.61.61,0,0,0,.42.09A.61.61,0,0,1,263.81,10.37Zm.5.07Zm3-4.53a.58.58,0,0,1,0,.54l-2.65,3.77a.61.61,0,0,1-.3.22.61.61,0,0,0,.3-.22l2.63-3.74.05-.07A.58.58,0,0,0,267.29,5.91Zm-3.73,4a.58.58,0,0,0,.21.47A.58.58,0,0,1,263.56,9.87ZM233.08,5.6Zm.17,0Zm33.51,0h0Zm-33.51,0ZM244.31,22l-.52-.29v-.28l1-7.25.46-.21.21.1,5.3,2.87v.59l-.27.14Zm1-6.79-.7,5.24,4.51-3.17Zm4.73,2h0Zm-5.16-2.67,4.9,2.66h0Zm-1.7,4.76-.43-1-.07.34-1.22-8.08.39-.13,17.87-3,.26.9-.47.13-15.09,5s0,0,0,.07l-.76,5.8Zm0-.71,0-.34Zm13-10.08.12.48-12.06,4a.59.59,0,0,0-.4.47l-.69,5.16h0l.69-5.16a.59.59,0,0,1,.4-.47l15.1-5h0Zm-13.64,2.8.58,3.81.23-1.75a1.07,1.07,0,0,1,.73-.87l9-3Zm-1.29-1-.13-.13L235,7l.2-1.39.38,1h24.77l.07.58-.45.07ZM238.87,8.5l2.54,1.35Zm-1.36-1,4,2.12,12.55-2.12Zm-2-1H257l0,.49,2.85-.48H235.55Z"/><path class="cls-1" d="M227,35.26a.58.58,0,0,0,.42-.7,5.28,5.28,0,0,1-.16-.81.59.59,0,0,0-.66-.49.58.58,0,0,0-.5.65,9.19,9.19,0,0,0,.19.94A.58.58,0,0,0,227,35.26Z"/><path class="cls-1" d="M226.81,35.53a.85.85,0,0,1-.81-.61,8.08,8.08,0,0,1-.19-1,.77.77,0,0,1,.16-.6.8.8,0,0,1,.55-.32.82.82,0,0,1,.93.7,6.74,6.74,0,0,0,.16.78.83.83,0,0,1-.59,1h0Zm-.18-2h0a.38.38,0,0,0-.22.13.36.36,0,0,0-.06.25,6.66,6.66,0,0,0,.18.91.34.34,0,0,0,.65-.17,7.63,7.63,0,0,1-.17-.83.32.32,0,0,0-.13-.22A.31.31,0,0,0,226.63,33.5Z"/><path class="cls-1" d="M226.8,35.65a.94.94,0,0,1-.48-.13,1,1,0,0,1-.44-.57c-.08-.32-.15-.65-.2-1a.95.95,0,0,1,.82-1.06,1,1,0,0,1,.7.18.88.88,0,0,1,.37.62,6.57,6.57,0,0,0,.16.77.94.94,0,0,1-.68,1.15h0A1,1,0,0,1,226.8,35.65Zm-.17-2h0a.19.19,0,0,0-.14.09.19.19,0,0,0,0,.15,6.52,6.52,0,0,0,.18.9.26.26,0,0,0,.1.13.3.3,0,0,0,.16,0h0a.22.22,0,0,0,.15-.26,7.52,7.52,0,0,1-.17-.85A.22.22,0,0,0,226.63,33.62Z"/><path class="cls-1" d="M226.8,35.89a1.2,1.2,0,0,1-1.16-.88,8.36,8.36,0,0,1-.2-1,1.17,1.17,0,0,1,.23-.88,1.24,1.24,0,0,1,.79-.46,1.25,1.25,0,0,1,.89.23,1.17,1.17,0,0,1,.47.79,5.55,5.55,0,0,0,.15.73,1.18,1.18,0,0,1-.86,1.45A1.06,1.06,0,0,1,226.8,35.89Zm-.17-2.76h-.1a.71.71,0,0,0-.6.79,7.6,7.6,0,0,0,.19,1,.72.72,0,0,0,.33.43.73.73,0,0,0,.54.07.7.7,0,0,0,.5-.85,6.49,6.49,0,0,1-.16-.79.73.73,0,0,0-.27-.47A.76.76,0,0,0,226.63,33.13Zm.18,2a.5.5,0,0,1-.24-.06.46.46,0,0,1-.21-.28,6.66,6.66,0,0,1-.18-.93.42.42,0,0,1,.08-.33.5.5,0,0,1,.31-.18h.06a.45.45,0,0,1,.45.39,7.45,7.45,0,0,0,.17.82.45.45,0,0,1-.05.34.43.43,0,0,1-.28.21A.22.22,0,0,1,226.81,35.16Z"/><path class="cls-1" d="M232.66,28.74a.58.58,0,0,0-.44-.69,7.83,7.83,0,0,0-1-.15.58.58,0,0,0-.63.53.57.57,0,0,0,.53.62,5.27,5.27,0,0,1,.81.12A.58.58,0,0,0,232.66,28.74Z"/><path class="cls-1" d="M232.09,29.43l-.18,0a4.88,4.88,0,0,0-.78-.12.82.82,0,1,1,.14-1.63,6.83,6.83,0,0,1,1,.15.8.8,0,0,1,.51.37.77.77,0,0,1,.11.61h0a.82.82,0,0,1-.37.52A.83.83,0,0,1,232.09,29.43Zm-.89-1.29a.35.35,0,0,0-.22.08.34.34,0,0,0,.19.59,6,6,0,0,1,.85.12.32.32,0,0,0,.25,0,.37.37,0,0,0,.15-.2h0a.3.3,0,0,0,0-.24.3.3,0,0,0-.2-.15,6.1,6.1,0,0,0-.94-.14Z"/><path class="cls-1" d="M232.09,29.55a.75.75,0,0,1-.21,0,4.8,4.8,0,0,0-.76-.11.94.94,0,1,1,.16-1.88,7.31,7.31,0,0,1,1,.15.94.94,0,0,1,.71,1.13h0a1,1,0,0,1-.42.59A1,1,0,0,1,232.09,29.55Zm-.89-1.28a.24.24,0,0,0-.14.05.17.17,0,0,0-.07.14.21.21,0,0,0,.19.22,8.1,8.1,0,0,1,.86.13.18.18,0,0,0,.16,0,.26.26,0,0,0,.1-.13h0a.22.22,0,0,0-.16-.25,5.68,5.68,0,0,0-.92-.14Z"/><path class="cls-1" d="M232.09,29.8a1.24,1.24,0,0,1-.27,0,4.36,4.36,0,0,0-.71-.11A1.2,1.2,0,0,1,230,28.38a1.24,1.24,0,0,1,.42-.81,1.22,1.22,0,0,1,.87-.28,7.45,7.45,0,0,1,1.07.16,1.19,1.19,0,0,1,.9,1.43,1.18,1.18,0,0,1-.53.74A1.19,1.19,0,0,1,232.09,29.8Zm-.89-2a.73.73,0,0,0-.46.17.68.68,0,0,0-.24.47.7.7,0,0,0,.64.75,5.19,5.19,0,0,1,.79.12.73.73,0,0,0,.54-.09.68.68,0,0,0,.31-.43.7.7,0,0,0-.53-.84,8.15,8.15,0,0,0-1-.15Zm.89,1.28H232a5.72,5.72,0,0,0-.83-.12.46.46,0,0,1-.42-.49.47.47,0,0,1,.16-.31.48.48,0,0,1,.3-.11h0a7.52,7.52,0,0,1,.95.15.46.46,0,0,1,.35.54.45.45,0,0,1-.2.28A.45.45,0,0,1,232.09,29.06Z"/><path class="cls-1" d="M236.07,32.57a.57.57,0,0,0,.44-.72,5.34,5.34,0,0,0-.38-.93.59.59,0,0,0-.79-.24.56.56,0,0,0-.24.77,4,4,0,0,1,.29.72A.58.58,0,0,0,236.07,32.57Z"/><path class="cls-1" d="M236,32.83a.83.83,0,0,1-.8-.59,3.91,3.91,0,0,0-.27-.67.77.77,0,0,1-.06-.63.81.81,0,0,1,.41-.48.86.86,0,0,1,.63-.06.88.88,0,0,1,.49.4,6.31,6.31,0,0,1,.4,1,.83.83,0,0,1-.09.65.78.78,0,0,1-.54.38h0A.47.47,0,0,1,236,32.83Zm-.34-2a.42.42,0,0,0-.15,0,.34.34,0,0,0-.17.2.32.32,0,0,0,0,.25,4.18,4.18,0,0,1,.31.76.33.33,0,0,0,.39.23h0a.31.31,0,0,0,.22-.15.34.34,0,0,0,0-.26,4.88,4.88,0,0,0-.36-.89.32.32,0,0,0-.2-.16Z"/><path class="cls-1" d="M236,33a1,1,0,0,1-.92-.67,3.12,3.12,0,0,0-.26-.66.94.94,0,0,1,1.13-1.33.91.91,0,0,1,.56.46,6.18,6.18,0,0,1,.41,1,1,1,0,0,1-.1.74.93.93,0,0,1-.62.44A.68.68,0,0,1,236,33Zm-.34-2-.1,0a.2.2,0,0,0-.08.28,4.51,4.51,0,0,1,.32.79.2.2,0,0,0,.24.14h0a.19.19,0,0,0,.14-.09.22.22,0,0,0,0-.17,4.85,4.85,0,0,0-.35-.86A.21.21,0,0,0,235.61,31Z"/><path class="cls-1" d="M236,33.2a1.2,1.2,0,0,1-1.15-.85,3.26,3.26,0,0,0-.25-.61,1.2,1.2,0,0,1-.09-.91,1.24,1.24,0,0,1,.59-.7,1.27,1.27,0,0,1,.92-.08,1.21,1.21,0,0,1,.71.58,5.9,5.9,0,0,1,.42,1.05,1.15,1.15,0,0,1-.12.94,1.22,1.22,0,0,1-.78.55A1,1,0,0,1,236,33.2Zm-.34-2.71a.69.69,0,0,0-.67.49.66.66,0,0,0,.05.53,3.53,3.53,0,0,1,.28.7.71.71,0,0,0,.83.48.7.7,0,0,0,.53-.87,5.68,5.68,0,0,0-.39-1,.71.71,0,0,0-.42-.34A.76.76,0,0,0,235.61,30.49Zm.34,2a.48.48,0,0,1-.44-.33,4.41,4.41,0,0,0-.3-.74.46.46,0,0,1,.19-.62A.48.48,0,0,1,236,31a5.43,5.43,0,0,1,.37.91.42.42,0,0,1,0,.36.44.44,0,0,1-.29.21Z"/><path class="cls-1" d="M226.47,30.54c.23-.16.48-.31.72-.45a.58.58,0,0,0,.21-.79.58.58,0,0,0-.79-.21q-.41.24-.81.51a.57.57,0,0,0-.14.8A.59.59,0,0,0,226.47,30.54Z"/><path class="cls-1" d="M226.14,30.89H226a.85.85,0,0,1-.54-.34.82.82,0,0,1,.21-1.14c.27-.19.55-.36.82-.52a.84.84,0,0,1,1.14.3.82.82,0,0,1-.3,1.12l-.71.44h0A.8.8,0,0,1,226.14,30.89Zm.76-1.63a.26.26,0,0,0-.17,0,9.21,9.21,0,0,0-.78.49.33.33,0,0,0-.09.46.37.37,0,0,0,.22.14.39.39,0,0,0,.25-.06h0c.24-.16.49-.32.74-.46a.33.33,0,0,0-.17-.62Z"/><path class="cls-1" d="M226.14,31H226a1,1,0,0,1-.62-.39.93.93,0,0,1,.24-1.31c.27-.19.55-.36.83-.52a1,1,0,0,1,1.3.34.89.89,0,0,1,.1.71,1,1,0,0,1-.44.58c-.24.13-.47.28-.7.43h0A.89.89,0,0,1,226.14,31Zm.76-1.63a.23.23,0,0,0-.11,0c-.26.15-.52.32-.77.49a.21.21,0,0,0-.06.29.22.22,0,0,0,.3,0c.24-.17.49-.32.75-.47a.21.21,0,0,0,.09-.13.17.17,0,0,0,0-.15A.21.21,0,0,0,226.9,29.38Z"/><path class="cls-1" d="M226.14,31.26l-.22,0a1.21,1.21,0,0,1-.77-.49,1.18,1.18,0,0,1,.3-1.66c.27-.18.56-.36.85-.53a1.2,1.2,0,0,1,1.64.44,1.18,1.18,0,0,1-.44,1.62,7,7,0,0,0-.68.43A1.27,1.27,0,0,1,226.14,31.26Zm.76-2.37a.68.68,0,0,0-.35.1,8.48,8.48,0,0,0-.81.51.68.68,0,0,0-.3.45.7.7,0,0,0,1.1.69c.23-.16.47-.31.71-.45a.69.69,0,0,0,.26-1,.67.67,0,0,0-.43-.32A.57.57,0,0,0,226.9,28.89Zm-.76,1.63a.47.47,0,0,1-.38-.19.45.45,0,0,1,.12-.63,8.09,8.09,0,0,1,.79-.5.49.49,0,0,1,.63.16.46.46,0,0,1,0,.35.44.44,0,0,1-.21.27c-.25.14-.5.3-.73.46A.42.42,0,0,1,226.14,30.52Z"/><path class="cls-1" d="M231,38.34a.57.57,0,0,0-.5-.64,3.49,3.49,0,0,1-.74-.19.58.58,0,0,0-.75.34.57.57,0,0,0,.34.74,4.58,4.58,0,0,0,1,.25A.59.59,0,0,0,231,38.34Z"/><path class="cls-1" d="M230.41,39.09h-.11a5.14,5.14,0,0,1-1.06-.26.84.84,0,0,1-.49-1.06.84.84,0,0,1,.44-.45.86.86,0,0,1,.63,0,3.12,3.12,0,0,0,.7.17.82.82,0,0,1,.54.32.8.8,0,0,1,.17.61h0A.83.83,0,0,1,230.41,39.09Zm-.88-1.37a.35.35,0,0,0-.14,0,.32.32,0,0,0-.17.19.31.31,0,0,0,0,.25.3.3,0,0,0,.18.17,4.25,4.25,0,0,0,1,.23.34.34,0,0,0,.38-.28h0a.34.34,0,0,0-.29-.37,4.07,4.07,0,0,1-.8-.2Z"/><path class="cls-1" d="M230.41,39.21h-.13a5.33,5.33,0,0,1-1.08-.26,1,1,0,0,1-.54-.5.94.94,0,0,1,0-.72,1,1,0,0,1,1.23-.55,2.77,2.77,0,0,0,.66.16,1,1,0,0,1,.82,1.06h0A.88.88,0,0,1,231,39,.94.94,0,0,1,230.41,39.21Zm-.88-1.37a.24.24,0,0,0-.2.14.22.22,0,0,0,0,.16.19.19,0,0,0,.12.11,4.58,4.58,0,0,0,.92.22.22.22,0,0,0,.24-.18h0a.22.22,0,0,0-.18-.23,4.3,4.3,0,0,1-.84-.2Z"/><path class="cls-1" d="M230.41,39.45h-.16a5.27,5.27,0,0,1-1.14-.27,1.22,1.22,0,0,1-.67-.63,1.09,1.09,0,0,1,0-.9A1.17,1.17,0,0,1,229,37a1.22,1.22,0,0,1,.92,0,3,3,0,0,0,.62.15,1.2,1.2,0,0,1,1,1.33,1.2,1.2,0,0,1-1.19,1Zm-.88-2.1a.59.59,0,0,0-.29.07.68.68,0,0,0-.37.39.65.65,0,0,0,0,.53.74.74,0,0,0,.39.37,5,5,0,0,0,1,.25.74.74,0,0,0,.52-.14.72.72,0,0,0,.28-.46.75.75,0,0,0-.14-.52.73.73,0,0,0-.47-.27,3.29,3.29,0,0,1-.72-.17A.7.7,0,0,0,229.53,37.35Zm.87,1.37h-.05a5.2,5.2,0,0,1-1-.24.55.55,0,0,1-.26-.24.47.47,0,0,1,0-.35.48.48,0,0,1,.59-.26,3.71,3.71,0,0,0,.78.19.46.46,0,0,1,.39.51.43.43,0,0,1-.18.29A.42.42,0,0,1,230.4,38.72Z"/><path class="cls-1" d="M223.07,34.31c.14-.25.29-.5.44-.73a.51.51,0,0,0,.09-.28.58.58,0,0,0-.43-.59.59.59,0,0,0-.64.24c-.17.26-.33.54-.48.81a.58.58,0,0,0,1,.55Z"/><path class="cls-1" d="M222.56,34.85a.89.89,0,0,1-.39-.09.83.83,0,0,1-.34-1.12c.16-.28.32-.55.49-.82a.84.84,0,0,1,.91-.35.82.82,0,0,1,.49,1.24c-.15.23-.29.47-.43.71h0A.81.81,0,0,1,222.56,34.85Zm.47-1.92a.34.34,0,0,0-.29.16c-.17.25-.32.52-.47.79a.35.35,0,0,0,0,.25.33.33,0,0,0,.16.19.34.34,0,0,0,.46-.13c.14-.25.29-.51.44-.75a.44.44,0,0,0,.06-.16.33.33,0,0,0-.25-.33Z"/><path class="cls-1" d="M222.56,35a.92.92,0,0,1-.45-.12.94.94,0,0,1-.39-1.28c.16-.28.32-.56.5-.82a1,1,0,0,1,1.05-.41,1,1,0,0,1,.7,1,.89.89,0,0,1-.15.45c-.14.23-.29.47-.42.71h0A1,1,0,0,1,222.56,35Zm.46-1.92a.21.21,0,0,0-.18.09c-.16.25-.32.52-.46.78a.21.21,0,0,0,.08.29.23.23,0,0,0,.29-.09h0q.21-.39.45-.75a.19.19,0,0,0,0-.1.22.22,0,0,0-.15-.22Z"/><path class="cls-1" d="M222.56,35.22a1.26,1.26,0,0,1-.57-.14,1.19,1.19,0,0,1-.49-1.61c.16-.29.33-.57.51-.85a1.22,1.22,0,0,1,1.32-.5,1.18,1.18,0,0,1,.7,1.79c-.14.22-.28.45-.41.69A1.22,1.22,0,0,1,222.56,35.22Zm.47-2.65a.72.72,0,0,0-.6.32c-.17.26-.34.53-.49.81a.7.7,0,0,0,.29.95.73.73,0,0,0,1-.29c.14-.24.28-.48.44-.72a.8.8,0,0,0,.11-.34.71.71,0,0,0-.53-.71A.52.52,0,0,0,223,32.57Zm-.47,1.92a.46.46,0,0,1-.22-.06.45.45,0,0,1-.18-.61c.15-.27.31-.54.48-.8a.45.45,0,0,1,.38-.21l.12,0a.46.46,0,0,1,.34.46.57.57,0,0,1-.07.22,8,8,0,0,0-.44.74.52.52,0,0,1-.28.22Z"/><path class="cls-1" d="M221.09,38.23c.14-.25.28-.5.44-.74a.66.66,0,0,0,.09-.27.58.58,0,0,0-1.07-.35q-.26.39-.48.81a.57.57,0,0,0,.23.78A.58.58,0,0,0,221.09,38.23Z"/><path class="cls-1" d="M220.58,38.77a.82.82,0,0,1-.4-.1.83.83,0,0,1-.4-.48.82.82,0,0,1,.07-.63c.15-.28.32-.55.49-.82a.84.84,0,0,1,.91-.35.83.83,0,0,1,.62.84.94.94,0,0,1-.13.4c-.15.23-.3.47-.43.71h0A.82.82,0,0,1,220.58,38.77Zm.46-1.92a.35.35,0,0,0-.28.15c-.17.26-.33.53-.47.8a.27.27,0,0,0,0,.25.3.3,0,0,0,.16.19.33.33,0,0,0,.45-.13c.14-.25.29-.51.45-.75a.3.3,0,0,0,.05-.16.34.34,0,0,0-.25-.34Z"/><path class="cls-1" d="M220.58,38.9a.89.89,0,0,1-.45-.12.93.93,0,0,1-.39-1.28c.15-.28.32-.56.5-.83a1,1,0,0,1,1-.4,1,1,0,0,1,.71,1,.89.89,0,0,1-.15.45c-.15.23-.29.47-.42.71h0A1,1,0,0,1,220.58,38.9ZM221,37a.21.21,0,0,0-.18.09c-.16.25-.32.52-.47.78a.23.23,0,0,0,.09.29.21.21,0,0,0,.28-.09h0c.14-.26.3-.51.46-.75a.2.2,0,0,0,0-.11.24.24,0,0,0-.16-.21Z"/><path class="cls-1" d="M220.58,39.14A1.23,1.23,0,0,1,220,39a1.19,1.19,0,0,1-.49-1.61c.16-.29.33-.57.51-.85a1.22,1.22,0,0,1,1.32-.5,1.19,1.19,0,0,1,.89,1.21,1.18,1.18,0,0,1-.19.58,7.84,7.84,0,0,0-.41.69A1.22,1.22,0,0,1,220.58,39.14Zm.46-2.65a.73.73,0,0,0-.6.32q-.25.39-.48.81a.7.7,0,0,0,.28,1,.74.74,0,0,0,1-.29c.14-.24.28-.49.43-.72a.6.6,0,0,0,.11-.34.69.69,0,0,0-.52-.71A.55.55,0,0,0,221,36.49Zm-.46,1.92a.43.43,0,0,1-.22-.06.45.45,0,0,1-.18-.61c.15-.27.31-.54.47-.8a.47.47,0,0,1,.39-.21l.11,0a.46.46,0,0,1,.35.46.45.45,0,0,1-.08.22c-.15.24-.3.49-.44.74a.46.46,0,0,1-.27.22Z"/><path class="cls-1" d="M235,37.35a5.21,5.21,0,0,0,.66-.75.59.59,0,0,0-.12-.81.6.6,0,0,0-.82.13,4.15,4.15,0,0,1-.52.59.56.56,0,0,0,0,.81A.6.6,0,0,0,235,37.35Z"/><path class="cls-1" d="M234.57,37.75h0a.86.86,0,0,1-.58-.26.82.82,0,0,1,0-1.16,4.2,4.2,0,0,0,.49-.55.82.82,0,0,1,.55-.33.83.83,0,0,1,.61.14.8.8,0,0,1,.33.54.81.81,0,0,1-.14.61,6.49,6.49,0,0,1-.7.78h0A.83.83,0,0,1,234.57,37.75Zm.6-1.82h-.06a.34.34,0,0,0-.22.13,4.68,4.68,0,0,1-.55.63.32.32,0,0,0,0,.46.38.38,0,0,0,.24.11.28.28,0,0,0,.24-.09h0a4.78,4.78,0,0,0,.63-.72.26.26,0,0,0,.06-.24.32.32,0,0,0-.13-.22A.33.33,0,0,0,235.17,35.93Z"/><path class="cls-1" d="M234.57,37.87a1,1,0,0,1-.7-.3.94.94,0,0,1,0-1.33,3.09,3.09,0,0,0,.48-.54,1,1,0,0,1,1.34-.2.91.91,0,0,1,.37.61,1,1,0,0,1-.16.7,6.12,6.12,0,0,1-.72.8h0A1,1,0,0,1,234.57,37.87Zm.6-1.82h0a.24.24,0,0,0-.14.09,4.92,4.92,0,0,1-.57.64.21.21,0,0,0,0,.29.22.22,0,0,0,.3,0,5.24,5.24,0,0,0,.63-.7.18.18,0,0,0,0-.15.17.17,0,0,0-.08-.14A.19.19,0,0,0,235.17,36.05Z"/><path class="cls-1" d="M234.57,38.11a1.22,1.22,0,0,1-.88-.37,1.19,1.19,0,0,1,.05-1.68,3,3,0,0,0,.45-.5,1.2,1.2,0,0,1,.79-.48,1.22,1.22,0,0,1,.89.22,1.16,1.16,0,0,1,.48.77,1.22,1.22,0,0,1-.21.89,6.61,6.61,0,0,1-.75.83A1.17,1.17,0,0,1,234.57,38.11Zm.6-2.55h-.12a.72.72,0,0,0-.46.28,3.92,3.92,0,0,1-.51.57.69.69,0,0,0,0,1,.72.72,0,0,0,1,0,6.23,6.23,0,0,0,.69-.76.68.68,0,0,0,.12-.52.7.7,0,0,0-.28-.46A.76.76,0,0,0,235.17,35.56Zm-.6,1.82a.45.45,0,0,1-.46-.47.41.41,0,0,1,.14-.31,3.87,3.87,0,0,0,.54-.61.47.47,0,0,1,.3-.18h.08a.53.53,0,0,1,.27.08.52.52,0,0,1,.18.3.46.46,0,0,1-.08.33,5.2,5.2,0,0,1-.66.74A.47.47,0,0,1,234.57,37.38Zm0-.43h0l.12.13Z"/><path class="cls-1" d="M236.82,23.44h.61a.86.86,0,0,0,.57-.08.57.57,0,0,0,.26-.43.58.58,0,0,0-.19-.48.88.88,0,0,0-.57-.16c-.23,0-.46,0-.69,0a.58.58,0,1,0,0,1.15Z"/><path class="cls-1" d="M237.66,23.25h-.18c-.26,0-.46,0-.66,0h0a.84.84,0,0,1-.58-.24.79.79,0,0,1-.25-.58.83.83,0,0,1,.83-.82,5.46,5.46,0,0,1,.7,0,1.07,1.07,0,0,1,.73.22.82.82,0,0,1,.27.67.83.83,0,0,1-.37.62A.81.81,0,0,1,237.66,23.25Zm-.77,0h.62a.55.55,0,0,0,.36-.05A.35.35,0,0,0,238,23a.39.39,0,0,0-.11-.27.7.7,0,0,0-.4-.09,5.61,5.61,0,0,0-.7,0,.33.33,0,0,0-.33.33.34.34,0,0,0,.33.33h.08Z"/><path class="cls-1" d="M237.66,23.83h-.2l-.64,0a1,1,0,0,1-.68-.27.91.91,0,0,1-.28-.66.94.94,0,0,1,.94-.95c.24,0,.48,0,.72,0a1.2,1.2,0,0,1,.8.25.93.93,0,0,1,.31.78,1,1,0,0,1-.42.71A1,1,0,0,1,237.66,23.83Zm-.77-.6h.56c.22,0,.3,0,.35,0a.19.19,0,0,0,.09-.15.18.18,0,0,0-.07-.17s-.15-.06-.31-.07l-.7,0a.21.21,0,1,0,0,.42h.08Z"/><path class="cls-1" d="M237.66,24.07h-.21c-.25,0-.44,0-.63,0a1.29,1.29,0,0,1-.85-.34,1.17,1.17,0,0,1-.36-.84,1.21,1.21,0,0,1,1.19-1.2l.73,0a1.51,1.51,0,0,1,1,.32,1.18,1.18,0,0,1-.14,1.87A1.24,1.24,0,0,1,237.66,24.07Zm-.82-.84c.18,0,.38,0,.64,0a1,1,0,0,0,.59-.11.71.71,0,0,0,.32-.52.74.74,0,0,0-.23-.58,1,1,0,0,0-.66-.19l-.7,0a.7.7,0,0,0-.69.71.67.67,0,0,0,.21.49.79.79,0,0,0,.51.2Zm.77.11h-.21l-.55,0v-.24l0,.24h0a.47.47,0,0,1-.5-.44.46.46,0,0,1,.45-.46,6,6,0,0,1,.72,0,.7.7,0,0,1,.46.13.41.41,0,0,1,.15.37.45.45,0,0,1-.2.34A.52.52,0,0,1,237.61,23.34Zm.23-.11Z"/><path class="cls-1" d="M232.08,24.66c.24-.13.49-.25.74-.36a.58.58,0,0,0,.29-.76.59.59,0,0,0-.76-.3l-.83.4a.57.57,0,0,0-.23.78A.59.59,0,0,0,232.08,24.66Z"/><path class="cls-1" d="M231.8,25a.84.84,0,0,1-.73-.43.81.81,0,0,1,.33-1.11c.28-.15.56-.29.85-.41a.83.83,0,0,1,1.09.42.81.81,0,0,1,0,.63.82.82,0,0,1-.43.45l-.73.35h0A.78.78,0,0,1,231.8,25Zm.78-1.53a.31.31,0,0,0-.13,0q-.42.18-.81.39a.33.33,0,1,0,.32.58h0c.24-.13.5-.25.76-.37a.3.3,0,0,0,.17-.18.36.36,0,0,0,0-.25A.34.34,0,0,0,232.58,23.44Z"/><path class="cls-1" d="M231.8,25.09a1,1,0,0,1-.84-.49.94.94,0,0,1,.39-1.28,8.32,8.32,0,0,1,.85-.41,1,1,0,0,1,1.25.48.93.93,0,0,1-.48,1.24c-.25.11-.49.23-.72.35h0A.91.91,0,0,1,231.8,25.09Zm.78-1.53-.08,0c-.27.12-.54.25-.8.39a.21.21,0,1,0,.2.36h0c.25-.13.51-.26.77-.37a.2.2,0,0,0,.1-.27.2.2,0,0,0-.11-.11Z"/><path class="cls-1" d="M231.8,25.34a1.2,1.2,0,0,1-1.06-.63,1.19,1.19,0,0,1,.49-1.61q.42-.23.87-.42a1.24,1.24,0,0,1,.91,0,1.22,1.22,0,0,1,.67.63,1.19,1.19,0,0,1-.61,1.57c-.24.1-.47.21-.7.33A1.13,1.13,0,0,1,231.8,25.34Zm.78-2.27a.67.67,0,0,0-.28.06c-.29.13-.57.26-.84.41a.68.68,0,0,0-.28.94.71.71,0,0,0,.95.28l.74-.35a.71.71,0,0,0,.36-.92.74.74,0,0,0-.39-.37A.8.8,0,0,0,232.58,23.07Zm-.78,1.53a.3.3,0,0,1-.13,0,.46.46,0,0,1-.31-.56.45.45,0,0,1,.22-.27c.27-.14.54-.27.82-.39a.47.47,0,0,1,.35,0,.45.45,0,0,1,.25.24.47.47,0,0,1-.23.6q-.39.16-.75.36A.59.59,0,0,1,231.8,24.6Z"/><path class="cls-1" d="M228.73,27.63c.08-.12.16-.24.25-.35a.58.58,0,0,0-.93-.69l-.29.39a.57.57,0,0,0,.16.8A.59.59,0,0,0,228.73,27.63Z"/><path class="cls-1" d="M228.24,28.13a.86.86,0,0,1-.46-.14.84.84,0,0,1-.35-.53.78.78,0,0,1,.13-.61c.09-.14.19-.28.29-.41a.84.84,0,0,1,.55-.32.79.79,0,0,1,.61.16.78.78,0,0,1,.32.54.76.76,0,0,1-.15.6l-.25.35h0A.84.84,0,0,1,228.24,28.13Zm.27-1.53h0a.3.3,0,0,0-.22.12l-.28.39a.32.32,0,0,0,.09.46.34.34,0,0,0,.46-.09h0l.26-.36a.3.3,0,0,0,.06-.24.32.32,0,0,0-.13-.22A.27.27,0,0,0,228.51,26.6Z"/><path class="cls-1" d="M228.24,28.25a.94.94,0,0,1-.53-.16,1,1,0,0,1-.4-.6.94.94,0,0,1,.14-.71l.3-.41a1,1,0,0,1,1.71.43,1,1,0,0,1-.18.7c-.09.11-.17.22-.25.34h0A1,1,0,0,1,228.24,28.25Zm.27-1.53a.19.19,0,0,0-.16.09c-.1.12-.19.25-.28.38a.21.21,0,0,0,.35.23h0l.26-.36a.18.18,0,0,0,0-.16.17.17,0,0,0-.08-.13A.21.21,0,0,0,228.51,26.72Z"/><path class="cls-1" d="M228.24,28.49a1.22,1.22,0,0,1-.67-.2,1.26,1.26,0,0,1-.51-.76,1.17,1.17,0,0,1,.19-.89l.3-.42a1.22,1.22,0,0,1,1.68-.24,1.18,1.18,0,0,1,.25,1.66l-.24.33A1.2,1.2,0,0,1,228.24,28.49Zm.28-2.26h-.11a.75.75,0,0,0-.46.27c-.1.14-.2.27-.29.41a.68.68,0,0,0-.11.52.73.73,0,0,0,.3.45.75.75,0,0,0,1-.19c.08-.12.16-.24.25-.35a.69.69,0,0,0,.13-.52.71.71,0,0,0-.27-.46A.73.73,0,0,0,228.52,26.23Zm-.28,1.53a.49.49,0,0,1-.25-.08.5.5,0,0,1-.2-.29.46.46,0,0,1,.08-.34l.28-.39a.48.48,0,0,1,.64-.09.45.45,0,0,1,.18.3.47.47,0,0,1-.09.33l-.26.36A.44.44,0,0,1,228.24,27.76Z"/></svg>