<svg id="Layer_1" data-name="Layer 1" xmlns="http://www.w3.org/2000/svg" viewBox="0 0 268.95 82.71"><defs><style>.cls-1{fill:#ff5722;}</style></defs><title>loginArtboard 2</title><path class="cls-1" d="M50.3,11.43c-.12,2.19-.21,5-.25,8.47s0,7.4,0,11.79.08,8.89.13,13.47.08,9.06.12,13.43.06,8.28.06,11.71,0,6.23.06,8.36A19.05,19.05,0,0,1,50.36,82a1.38,1.38,0,0,1-1.47.68,2.42,2.42,0,0,1-1.23-.36q-.12-4.15-.24-7.39c-.08-2.16-.15-4.6-.19-7.31s-.08-5.43-.12-8.12S47,54.26,47,51.84s-.06-4.44-.06-6q0-7.19.06-13.95t.18-12q.12-6.15.37-11.67c-.74,0-2.8.14-6.19.4s-7.42.63-12.08,1.08-9.55,1-14.66,1.6S4.9,12.47.82,13.11Q-.9,12.32,1,11.55a30.57,30.57,0,0,1,5.82-1.4q3.19-.56,7.42-1t8.65-.88c2.94-.26,5.84-.52,8.71-.76l7.72-.64L45,6.39a10.89,10.89,0,0,0,2.51-.31c.16-.06.25-.38.25-1v-2c0-.72,0-1.37.06-2s.14-.93.3-1a2.44,2.44,0,0,1,1-.16,1.4,1.4,0,0,1,1.6,1.4q.12,1.4.24,4.44l4.85-.28c2.33-.14,5-.28,8-.44s6.11-.31,9.38-.44,6.3-.26,9.08-.36,5.11-.16,7-.16a17.45,17.45,0,0,1,3.31.16.82.82,0,0,1,.61.8c0,.42-.29.69-.86.8a37.4,37.4,0,0,1-3.86.28c-2,.08-4.91.16-8.71.24s-8.89.27-15.27.59l-3.8.24c-1.55.11-3.06.2-4.53.28s-3.28.2-5.4.36A11.77,11.77,0,0,0,50.3,11.43Z"/><path class="cls-1" d="M55.63,57.79Q54,57.79,54,56.71c0-.71-.06-1.79-.06-3.23V44.32q0-3.23.12-4.71c.08-1,.23-1.56.43-1.72a2.3,2.3,0,0,1,2,0c.2.13.33.55.37,1.24s.08,1.75.12,3.16.06,3.42.06,6a47.26,47.26,0,0,1,3.93-7,28.28,28.28,0,0,1,3.8-4.52,14.49,14.49,0,0,1,3.43-2.48,8.3,8.3,0,0,1,3-.84,4.12,4.12,0,0,1,3.18.92A4.34,4.34,0,0,1,75.75,37a1.81,1.81,0,0,1-.13,1.16c-.16.35-.61.52-1.35.52a1.34,1.34,0,0,1-1.41-.92,11,11,0,0,0-.67-1.64,1.14,1.14,0,0,0-1.29-.6c-.61.08-1.7.82-3.25,2.2a22.87,22.87,0,0,0-5.21,6.4,48.29,48.29,0,0,0-3,6.55q-1.11,3-1.84,5.08C57.11,57.11,56.45,57.79,55.63,57.79Z"/><path class="cls-1" d="M79.55,54.44a3.62,3.62,0,0,1-2.33.16,3.1,3.1,0,0,1-1.59-1.16,6.82,6.82,0,0,1-1-2.08,9.59,9.59,0,0,1-.36-2.68,13.34,13.34,0,0,1,.36-3,12.62,12.62,0,0,1,1.11-3,8.41,8.41,0,0,1,1.9-2.44,7.27,7.27,0,0,1,2.64-1.52,5.39,5.39,0,0,1,1-.32,4.42,4.42,0,0,1,1.16,0c1.06.11,1.66.17,1.78.2s.27-.23.43-.76a1.74,1.74,0,0,1,1.84-1.44,1.41,1.41,0,0,1,1.53,1,9.48,9.48,0,0,1,.37,2.52c0,1,.12,2.25.25,3.64a11,11,0,0,0,1.41,4.31,7.7,7.7,0,0,0,2.2,2.8,4.31,4.31,0,0,0,2.58,1,3.48,3.48,0,0,0,2.21-.92,18.17,18.17,0,0,0,2.08-2,23.14,23.14,0,0,0,1.66-2.08,5.32,5.32,0,0,1,.92-1.12,1.73,1.73,0,0,1,1.65-.4c.62.16.92.48.92,1a6.56,6.56,0,0,1-.73,1.4,14.94,14.94,0,0,1-2,2.6A15.92,15.92,0,0,1,98.5,52.6a7.12,7.12,0,0,1-3.87,1.12,6.63,6.63,0,0,1-4.41-1.44,11.38,11.38,0,0,1-2.7-3.2,16.6,16.6,0,0,1-1.84-4.64c-.08,0-.2.19-.37.56s-.36.86-.61,1.44a35.62,35.62,0,0,1-2.82,5.88A5.36,5.36,0,0,1,79.55,54.44Zm-2.21-5.6a8.93,8.93,0,0,0,.19,1.92,3,3,0,0,0,.67,1.44c.16.21.39.09.68-.36s.63-1.07,1-1.84.81-1.64,1.22-2.6.78-1.86,1.11-2.72.59-1.58.79-2.19a9.33,9.33,0,0,0,.31-1,.73.73,0,0,0-.67-1,2.81,2.81,0,0,0-2.09.68,8.14,8.14,0,0,0-2.21,2.72A10.31,10.31,0,0,0,77.34,48.84Z"/><path class="cls-1" d="M109.72,65.31a5.38,5.38,0,0,0,4.41,1.52,9.05,9.05,0,0,0,3.56-1.2,18.08,18.08,0,0,0,3.49-2.6,35.17,35.17,0,0,0,3.19-3.44A29.51,29.51,0,0,0,127,55.8a45.7,45.7,0,0,0,2.88-5.28c.61-1.39,1.11-2.48,1.47-3.28a8.65,8.65,0,0,1,.92-1.64,1.39,1.39,0,0,1,1.11-.44c1,0,1.47.35,1.47,1a9.53,9.53,0,0,1-.74,2.2q-.74,1.8-2,4.28A59.3,59.3,0,0,1,129,58a33,33,0,0,1-4.17,5.16,24.31,24.31,0,0,1-5.09,4,12,12,0,0,1-5.7,1.68,12.58,12.58,0,0,1-4.66-.88,9.13,9.13,0,0,1-3.43-2.48,13.56,13.56,0,0,1-2.4-4,29.25,29.25,0,0,1-1.47-5.19,40.34,40.34,0,0,1-.67-6.16,72.3,72.3,0,0,1,.24-10.11,97.41,97.41,0,0,1,1.54-10.47q1-5.16,2.45-9.84a67.63,67.63,0,0,1,3-8.19,22.69,22.69,0,0,1,2.89-5.07,6.11,6.11,0,0,1,3-2.36,4,4,0,0,1,3.56.16,3.64,3.64,0,0,1,1.59,3,19.56,19.56,0,0,1-.24,5.16,55.28,55.28,0,0,1-1.54,6.56A75.16,75.16,0,0,1,115.36,26c-1,2.43-2,4.78-3.07,7.07s-2.08,4.36-3.06,6.2a49.33,49.33,0,0,1-2.7,4.56,7.35,7.35,0,0,1-2,2.19c-.17.11-.27,1-.31,2.52a27.72,27.72,0,0,0,.49,5.48,36.19,36.19,0,0,0,1.72,6.27A12,12,0,0,0,109.72,65.31ZM116.22,7c-.33-1-.74-1.35-1.23-1.19-.65.21-1.41,1.26-2.27,3.15a65.4,65.4,0,0,0-2.57,6.84c-.86,2.66-1.68,5.53-2.46,8.59s-1.45,5.86-2,8.39-1,4.6-1.16,6.2-.15,2.29.18,2.08a13.93,13.93,0,0,0,1.59-2.48q1.23-2.16,2.7-5.28c1-2.07,2-4.38,3.07-6.91s2-5,2.7-7.43a51.07,51.07,0,0,0,1.59-6.84A11.48,11.48,0,0,0,116.22,7Z"/><path class="cls-1" d="M137.07,54.44a3.62,3.62,0,0,1-2.33.16,3.16,3.16,0,0,1-1.6-1.16,6.81,6.81,0,0,1-1-2.08,9.24,9.24,0,0,1-.37-2.68,12.81,12.81,0,0,1,.37-3,12.6,12.6,0,0,1,1.1-3,8.58,8.58,0,0,1,1.9-2.44,7.44,7.44,0,0,1,2.64-1.52,5.84,5.84,0,0,1,1-.32,4.51,4.51,0,0,1,1.17,0c1.06.11,1.65.17,1.78.2s.26-.23.43-.76a1.72,1.72,0,0,1,1.84-1.44,1.42,1.42,0,0,1,1.53,1,10.38,10.38,0,0,1,.37,2.52c0,1,.12,2.25.24,3.64a11,11,0,0,0,1.41,4.31,7.72,7.72,0,0,0,2.21,2.8,4.31,4.31,0,0,0,2.58,1,3.46,3.46,0,0,0,2.2-.92,18.25,18.25,0,0,0,2.09-2,24.79,24.79,0,0,0,1.65-2.08,5.67,5.67,0,0,1,.92-1.12,1.75,1.75,0,0,1,1.66-.4c.61.16.92.48.92,1a6.91,6.91,0,0,1-.74,1.4,14.85,14.85,0,0,1-2,2.6A15.69,15.69,0,0,1,156,52.6a7.06,7.06,0,0,1-3.86,1.12,6.66,6.66,0,0,1-4.42-1.44,11.5,11.5,0,0,1-2.69-3.2,16.6,16.6,0,0,1-1.84-4.64c-.09,0-.21.19-.37.56s-.37.86-.61,1.44a36.47,36.47,0,0,1-2.82,5.88A5.42,5.42,0,0,1,137.07,54.44Zm-2.21-5.6a9.64,9.64,0,0,0,.18,1.92,3,3,0,0,0,.68,1.44c.16.21.38.09.67-.36s.63-1.07,1-1.84.82-1.64,1.23-2.6.78-1.86,1.1-2.72.6-1.58.8-2.19.31-1,.31-1c.16-.59-.06-.93-.68-1a2.79,2.79,0,0,0-2.08.68,8,8,0,0,0-2.21,2.72A10.31,10.31,0,0,0,134.86,48.84Z"/><path class="cls-1" d="M190.13,48.46c-.08-.47-.14-.94-.23-1.4a7.3,7.3,0,0,1-.11-1.45,8.59,8.59,0,0,0-.91,1.63c-.37.8-.86,1.89-1.47,3.28a49,49,0,0,1-2.88,5.28,29.51,29.51,0,0,1-2.64,3.79A36.45,36.45,0,0,1,178.7,63a18.39,18.39,0,0,1-3.49,2.6,9.1,9.1,0,0,1-3.56,1.2,5.4,5.4,0,0,1-4.42-1.52,12.12,12.12,0,0,1-3.25-5A36.14,36.14,0,0,1,162.27,54a27,27,0,0,1-.49-5.48,6.11,6.11,0,0,1,.3-2.52,7.22,7.22,0,0,0,2-2.19,49.33,49.33,0,0,0,2.7-4.56c1-1.84,2-3.9,3.07-6.2s2.08-4.64,3.07-7.07,1.81-4.82,2.51-7.19a57.14,57.14,0,0,0,1.53-6.56,19.19,19.19,0,0,0,.25-5.16,3.68,3.68,0,0,0-1.6-2.95A4,4,0,0,0,172,4a6.13,6.13,0,0,0-3,2.36,23.09,23.09,0,0,0-2.88,5.07,66,66,0,0,0-3,8.19c-.95,3.12-1.76,6.4-2.46,9.84a100,100,0,0,0-1.53,10.47A70.85,70.85,0,0,0,158.89,50a41.6,41.6,0,0,0,.68,6.16A29.25,29.25,0,0,0,161,61.39a13.54,13.54,0,0,0,2.39,4,9.16,9.16,0,0,0,3.44,2.48,12.58,12.58,0,0,0,4.66.88,12,12,0,0,0,5.7-1.68,24.57,24.57,0,0,0,5.09-4A33.62,33.62,0,0,0,186.49,58a59.06,59.06,0,0,0,3.12-5.27c.5-1,.92-1.82,1.3-2.62A3.91,3.91,0,0,1,190.13,48.46ZM162,38.93c.2-1.6.59-3.66,1.17-6.2s1.24-5.32,2-8.39,1.59-5.93,2.45-8.59a65.25,65.25,0,0,1,2.58-6.84C171.1,7,171.85,6,172.51,5.76c.49-.16.9.24,1.22,1.19a11.61,11.61,0,0,1,.13,5.12,49.69,49.69,0,0,1-1.6,6.84,73.9,73.9,0,0,1-2.7,7.43c-1.06,2.53-2.08,4.84-3.06,6.91s-1.88,3.84-2.7,5.28A14.57,14.57,0,0,1,162.21,41C161.88,41.22,161.82,40.53,162,38.93Z"/><path class="cls-1" d="M193.58,52.44a3.62,3.62,0,0,1-2.33.16,3.18,3.18,0,0,1-1.59-1.16,6.58,6.58,0,0,1-1-2.08,9.24,9.24,0,0,1-.37-2.68,12.81,12.81,0,0,1,.37-3,12.17,12.17,0,0,1,1.1-3,8.41,8.41,0,0,1,1.9-2.44,7.44,7.44,0,0,1,2.64-1.52,5.61,5.61,0,0,1,1-.32,4.43,4.43,0,0,1,1.16,0c1.07.11,1.66.17,1.78.2s.27-.23.43-.76a1.74,1.74,0,0,1,1.84-1.44,1.41,1.41,0,0,1,1.53,1,9.48,9.48,0,0,1,.37,2.52c0,1,.12,2.25.25,3.64a11,11,0,0,0,1.41,4.31,7.61,7.61,0,0,0,2.21,2.8,4.26,4.26,0,0,0,2.57,1,3.48,3.48,0,0,0,2.21-.92,18.17,18.17,0,0,0,2.08-2,23.14,23.14,0,0,0,1.66-2.08,5.32,5.32,0,0,1,.92-1.12,1.73,1.73,0,0,1,1.65-.4c.62.16.92.48.92,1a6.56,6.56,0,0,1-.73,1.4,14.94,14.94,0,0,1-2,2.6,15.62,15.62,0,0,1-3.06,2.48,7.11,7.11,0,0,1-3.86,1.12,6.64,6.64,0,0,1-4.42-1.44,11.55,11.55,0,0,1-2.7-3.2,16.6,16.6,0,0,1-1.84-4.64c-.08,0-.2.19-.36.56s-.37.86-.62,1.44a34.81,34.81,0,0,1-2.82,5.88A5.31,5.31,0,0,1,193.58,52.44Zm-2.21-5.6a9.61,9.61,0,0,0,.19,1.92,3,3,0,0,0,.67,1.44c.17.21.39.09.68-.36s.63-1.07,1-1.84.82-1.64,1.23-2.6.77-1.86,1.1-2.72.59-1.58.8-2.19.3-1,.3-1c.17-.59-.06-.93-.67-1a2.82,2.82,0,0,0-2.09.68,8.13,8.13,0,0,0-2.2,2.72A10.19,10.19,0,0,0,191.37,46.84Z"/><path class="cls-1" d="M268.11,5.71H234.32a.59.59,0,0,0-.47.21.58.58,0,0,0,.17.89l7.88,4.25h0l1.84,12.23a.59.59,0,0,0,.92.39l7.69-5.46h0l5.45,3a.61.61,0,0,0,.77-.18l5.73-8.25a.59.59,0,1,0-1-.67l-5.43,7.81h0L247,14h0l19.58-6.52h0L265,9.75a.6.6,0,0,0,.11.83.58.58,0,0,0,.83-.13l2.66-3.82,0-.07A.59.59,0,0,0,268.11,5.71Zm-16.9,11.87h0l-6.13,4.35h0l1-7.2h0Zm9.4-9.4-15.23,5.08a.57.57,0,0,0-.39.47l-.7,5.27h0l-1.17-7.83h0l17.5-3Zm.54-1.29-18.61,3.18h0l-5.9-3.18h24.51Z"/><path class="cls-1" d="M244.33,24A.72.72,0,0,1,244,24a.8.8,0,0,1-.51-.64l-1.82-12.11L233.9,7a.79.79,0,0,1-.42-.58.83.83,0,0,1,.18-.69.86.86,0,0,1,.66-.3h33.79a.83.83,0,0,1,.71.4.84.84,0,0,1,.05.81.36.36,0,0,1-.07.1l-2.65,3.82a.84.84,0,0,1-.55.35.87.87,0,0,1-.63-.15.85.85,0,0,1-.18-1.18L266,7.89,247.65,14l10.19,5.61,5.3-7.63a.83.83,0,0,1,1.51.33.8.8,0,0,1-.13.62l-5.74,8.25a.83.83,0,0,1-1.09.25l-5.32-2.92-7.57,5.38A.82.82,0,0,1,244.33,24ZM234.32,6a.35.35,0,0,0-.28.12.33.33,0,0,0-.07.28.31.31,0,0,0,.17.23l8,4.32v.15L244,23.26a.35.35,0,0,0,.21.25.31.31,0,0,0,.32,0l7.82-5.56.14.07,5.46,3a.35.35,0,0,0,.44-.11l5.74-8.24a.32.32,0,0,0,.05-.25.3.3,0,0,0-.14-.22.36.36,0,0,0-.25-.06.4.4,0,0,0-.22.14l-5.57,8-.21-.13-11-6v-.32l.16-.07L266.7,7.13l.23.26-.1.16L265.2,9.9a.35.35,0,0,0,.06.48.31.31,0,0,0,.26.06.3.3,0,0,0,.22-.14l2.65-3.81a.35.35,0,0,0,0-.37.35.35,0,0,0-.29-.16ZM245.1,22.24l-.27-.15v-.15l1-7.37.23-.11.11.06,5.31,2.91v.31l-.14.07Zm1.14-7.11-.84,6.28,5.34-3.8Zm-2,4.12h-.21l0-.21-1.2-8,.2-.07,17.76-3,.13.46-.23.07-15.23,5.07a.32.32,0,0,0-.22.28l-.74,5.48Zm-.89-7.88.88,5.87.47-3.54a.84.84,0,0,1,.56-.68L257.47,9Zm-.94-1-.06-.07-6-3.25.1-.38h24.95l0,.47-.22,0Zm-4.83-3.21,5,2.68,15.65-2.68Z"/><path class="cls-1" d="M228,36a.59.59,0,0,0,.42-.71,7.6,7.6,0,0,1-.16-.83.59.59,0,0,0-1.17.16,9.79,9.79,0,0,0,.19,1A.59.59,0,0,0,228,36Z"/><path class="cls-1" d="M227.81,36.4a1,1,0,0,1-.48-.13,1,1,0,0,1-.45-.59,10,10,0,0,1-.2-1,1,1,0,0,1,.19-.71.94.94,0,0,1,.63-.37,1,1,0,0,1,1.09.82q.06.41.15.78a1,1,0,0,1-.68,1.18h0A1.07,1.07,0,0,1,227.81,36.4Zm-.18-2.07h0a.22.22,0,0,0-.14.08.25.25,0,0,0-.05.16,8.81,8.81,0,0,0,.19.92.21.21,0,0,0,.1.13.18.18,0,0,0,.16,0h0a.22.22,0,0,0,.15-.26,7.88,7.88,0,0,1-.18-.87A.21.21,0,0,0,227.63,34.33Z"/><path class="cls-1" d="M233.72,29.35a.6.6,0,0,0-.44-.71,8.15,8.15,0,0,0-1-.15.6.6,0,0,0-.63.54.58.58,0,0,0,.54.63,5.47,5.47,0,0,1,.81.13A.6.6,0,0,0,233.72,29.35Z"/><path class="cls-1" d="M233.15,30.18a.78.78,0,0,1-.22,0,6.32,6.32,0,0,0-.76-.11,1,1,0,0,1,.15-1.92,7.25,7.25,0,0,1,1,.16,1,1,0,0,1,.72,1.15h0a1,1,0,0,1-.42.6A1,1,0,0,1,233.15,30.18Zm-.91-1.31a.17.17,0,0,0-.13.05.18.18,0,0,0-.08.14.21.21,0,0,0,.2.23,6.53,6.53,0,0,1,.87.13.18.18,0,0,0,.16,0,.19.19,0,0,0,.09-.14h0a.21.21,0,0,0-.16-.25,5.63,5.63,0,0,0-.93-.14Z"/><path class="cls-1" d="M237.16,33.26a.59.59,0,0,0,.44-.74,5.27,5.27,0,0,0-.39-1,.58.58,0,0,0-.79-.25.59.59,0,0,0-.24.8,3.83,3.83,0,0,1,.29.73A.6.6,0,0,0,237.16,33.26Z"/><path class="cls-1" d="M237,33.65a1,1,0,0,1-.93-.69,3.24,3.24,0,0,0-.27-.67,1,1,0,1,1,1.71-.89,5.31,5.31,0,0,1,.41,1,1,1,0,0,1-.1.76,1,1,0,0,1-.62.45Zm-.35-2a.16.16,0,0,0-.09,0,.2.2,0,0,0-.09.28,4.71,4.71,0,0,1,.32.81.21.21,0,0,0,.25.14h0a.2.2,0,0,0,.14-.1.25.25,0,0,0,0-.16,5.19,5.19,0,0,0-.36-.89A.21.21,0,0,0,236.69,31.63Z"/><path class="cls-1" d="M227.47,31.19c.24-.17.48-.32.73-.47a.59.59,0,0,0,.22-.8.6.6,0,0,0-.81-.21q-.41.24-.81.51a.59.59,0,0,0-.14.82A.58.58,0,0,0,227.47,31.19Z"/><path class="cls-1" d="M227.14,31.67l-.17,0a.91.91,0,0,1-.62-.4,1,1,0,0,1,.24-1.34l.83-.53a1,1,0,0,1,1.42,1.08,1,1,0,0,1-.45.59c-.24.14-.48.29-.7.45h0A1,1,0,0,1,227.14,31.67Zm.77-1.67a.2.2,0,0,0-.11,0c-.26.16-.53.32-.78.5a.22.22,0,0,0-.06.3.23.23,0,0,0,.3.05c.24-.17.5-.33.75-.48a.22.22,0,0,0,.1-.13.19.19,0,0,0,0-.16A.21.21,0,0,0,227.91,30Z"/><path class="cls-1" d="M232,39.15a.59.59,0,0,0-.51-.66,3.58,3.58,0,0,1-.75-.19.6.6,0,0,0-.76.34.59.59,0,0,0,.35.76,4.53,4.53,0,0,0,1,.25A.61.61,0,0,0,232,39.15Z"/><path class="cls-1" d="M231.44,40h-.12a4.83,4.83,0,0,1-1.09-.27.92.92,0,0,1-.54-.5,1,1,0,0,1,0-.74A1,1,0,0,1,230.9,38a3.65,3.65,0,0,0,.67.17,1,1,0,0,1,.83,1.08h0a1,1,0,0,1-1,.83Zm-.88-1.39a.21.21,0,0,0-.19.3.19.19,0,0,0,.12.11,4,4,0,0,0,.93.23.21.21,0,0,0,.15,0,.21.21,0,0,0,.09-.14h0a.22.22,0,0,0-.19-.24,3.74,3.74,0,0,1-.83-.21Z"/><path class="cls-1" d="M224.05,35c.14-.26.29-.51.44-.75a.49.49,0,0,0,.09-.28.59.59,0,0,0-1.08-.35c-.17.26-.33.54-.48.82a.59.59,0,0,0,.23.8A.6.6,0,0,0,224.05,35Z"/><path class="cls-1" d="M223.53,35.71a1,1,0,0,1-.45-.11,1,1,0,0,1-.39-1.31c.15-.29.32-.57.5-.85A1,1,0,0,1,225,34a.9.9,0,0,1-.15.46c-.15.24-.3.48-.43.73h0A1,1,0,0,1,223.53,35.71Zm.47-2a.22.22,0,0,0-.18.1c-.17.26-.33.53-.47.8a.21.21,0,0,0,.08.29.22.22,0,0,0,.29-.09h0c.14-.26.29-.52.45-.77a.21.21,0,0,0,0-.1.23.23,0,0,0-.16-.22Z"/><path class="cls-1" d="M222.05,39c.14-.26.29-.51.44-.75a.49.49,0,0,0,.09-.28.59.59,0,0,0-1.08-.35c-.17.26-.33.54-.48.82a.59.59,0,0,0,.23.8A.6.6,0,0,0,222.05,39Z"/><path class="cls-1" d="M221.53,39.71a1,1,0,0,1-.45-.11,1,1,0,0,1-.39-1.31c.15-.29.32-.57.5-.85A1,1,0,0,1,223,38a.9.9,0,0,1-.15.46c-.15.24-.3.48-.43.73h0A1,1,0,0,1,221.53,39.71Zm.47-2a.22.22,0,0,0-.18.1c-.17.26-.33.53-.47.8a.21.21,0,0,0,.08.29.22.22,0,0,0,.29-.09h0c.14-.26.29-.52.45-.77a.21.21,0,0,0,0-.1.23.23,0,0,0-.16-.22Z"/><path class="cls-1" d="M236,38.13a5.43,5.43,0,0,0,.68-.76.6.6,0,0,0-.13-.83.59.59,0,0,0-.82.13,4.37,4.37,0,0,1-.53.6.59.59,0,1,0,.8.86Z"/><path class="cls-1" d="M235.64,38.66A1,1,0,0,1,235,37a4.28,4.28,0,0,0,.49-.55,1,1,0,0,1,1.34-.21.93.93,0,0,1,.38.63,1,1,0,0,1-.17.72,6.13,6.13,0,0,1-.72.81h0A.92.92,0,0,1,235.64,38.66Zm.6-1.85h0a.25.25,0,0,0-.14.08,4.5,4.5,0,0,1-.57.66.21.21,0,0,0,0,.3.22.22,0,0,0,.3,0,5.42,5.42,0,0,0,.63-.72.18.18,0,0,0,0-.15.17.17,0,0,0-.08-.14A.2.2,0,0,0,236.24,36.81Z"/><path class="cls-1" d="M237.91,23.94c.21,0,.41,0,.62,0a.89.89,0,0,0,.58-.08.62.62,0,0,0,.26-.44.63.63,0,0,0-.19-.49.87.87,0,0,0-.59-.16l-.69,0a.59.59,0,0,0,0,1.18Z"/><path class="cls-1" d="M238.76,24.34h-.2c-.25,0-.45,0-.65,0a1,1,0,0,1-.68-.28,1,1,0,0,1-.29-.67,1,1,0,0,1,1-1h.71a1.22,1.22,0,0,1,.82.27,1,1,0,0,1-.67,1.67Zm-.78-.78.57,0c.22,0,.3,0,.35,0a.22.22,0,0,0,.09-.16.23.23,0,0,0-.06-.18.58.58,0,0,0-.32-.07c-.26,0-.49,0-.71,0a.21.21,0,1,0,0,.42H238Z"/><path class="cls-1" d="M233.13,25.18c.24-.13.49-.25.75-.37a.59.59,0,1,0-.48-1.07,9.12,9.12,0,0,0-.83.41.58.58,0,0,0-.24.79A.59.59,0,0,0,233.13,25.18Z"/><path class="cls-1" d="M232.85,25.62a1,1,0,0,1-.85-.5,1,1,0,0,1,.39-1.3c.28-.15.57-.29.86-.42a1,1,0,0,1,1.27.49,1,1,0,0,1-.49,1.27,6,6,0,0,0-.72.35h0A1,1,0,0,1,232.85,25.62Zm.79-1.56-.09,0c-.27.12-.54.26-.8.4a.21.21,0,0,0-.09.28.21.21,0,0,0,.29.09h0c.25-.14.51-.26.77-.38a.21.21,0,0,0,.11-.28.2.2,0,0,0-.11-.11Z"/><path class="cls-1" d="M229.75,28.21l.26-.36a.6.6,0,0,0-.12-.82.59.59,0,0,0-.82.12c-.1.13-.2.27-.29.41a.58.58,0,0,0,1,.65Z"/><path class="cls-1" d="M229.26,28.85a1,1,0,0,1-.53-.17.95.95,0,0,1-.26-1.33,4,4,0,0,1,.3-.42,1,1,0,0,1,1.72.44,1,1,0,0,1-.18.71c-.09.11-.17.23-.25.34h0A1,1,0,0,1,229.26,28.85Zm.28-1.56a.2.2,0,0,0-.17.09,3.89,3.89,0,0,0-.28.39.21.21,0,0,0,.35.23h0c.09-.12.17-.25.27-.37a.2.2,0,0,0,0-.16.2.2,0,0,0-.08-.14A.17.17,0,0,0,229.54,27.29Z"/></svg>